<svg width="653" height="250" viewBox="0 0 653 250" fill="none" xmlns="http://www.w3.org/2000/svg">
<path d="M124.897 235.588C126.118 231.649 126.857 223.571 120.439 221.059C128.999 213.942 133.895 228.568 124.897 235.588Z" fill="#911010"/>
<path d="M115.616 238.573C117.373 234.833 119.225 226.929 113.216 223.585C122.683 217.674 125.504 232.816 115.616 238.573Z" fill="#911010"/>
<path d="M105.084 236.737C107.544 233.399 110.918 225.994 105.681 221.577C116.135 217.567 115.92 232.958 105.084 236.737Z" fill="#911010"/>
<ellipse cx="17.5136" cy="27.7193" rx="17.5136" ry="27.7193" transform="matrix(0.999429 -0.0337796 0.0351897 0.999381 96.7952 172.775)" fill="#C53030"/>
<path d="M191.845 181.703C190.596 177.78 186.611 170.717 180.008 172.214C182.878 161.595 195.124 170.922 191.845 181.703Z" fill="#911010"/>
<path d="M190.484 186.61C186.448 185.798 178.99 182.612 179.754 175.884C169.514 179.902 180.127 191.051 190.484 186.61Z" fill="#911010"/>
<path d="M181.173 188.735C177.332 187.252 170.522 182.848 172.414 176.347C161.642 178.572 170.213 191.358 181.173 188.735Z" fill="#911010"/>
<ellipse cx="163.831" cy="157.645" rx="17.1592" ry="27.7186" transform="rotate(-36.527 163.831 157.645)" fill="#C53030"/>
<path d="M237.367 127.159C235.019 123.777 229.131 118.2 223.261 121.574C222.878 110.581 237.327 115.89 237.367 127.159Z" fill="#911010"/>
<path d="M235.646 135.632C233.365 132.204 227.589 126.512 221.653 129.769C221.489 118.77 235.829 124.364 235.646 135.632Z" fill="#911010"/>
<path d="M227.516 138.135C223.434 137.603 215.775 134.936 216.074 128.173C206.135 132.885 217.489 143.278 227.516 138.135Z" fill="#911010"/>
<ellipse cx="202.537" cy="115.615" rx="17.1592" ry="27.7186" transform="rotate(-60.3232 202.537 115.615)" fill="#C53030"/>
<ellipse cx="68.6366" cy="145.633" rx="63.3569" ry="64.6768" fill="#C33434"/>
<ellipse cx="68.6366" cy="142.113" rx="63.3569" ry="61.157" fill="#EB7B7B"/>
<ellipse cx="99.8751" cy="110.434" rx="76.1162" ry="75.2363" fill="#C33434"/>
<ellipse cx="99.8751" cy="107.354" rx="76.1162" ry="72.1564" fill="#EB7B7B"/>
<ellipse cx="125.394" cy="84.0361" rx="77.8762" ry="75.2363" fill="#C33434"/>
<ellipse cx="125.394" cy="80.9563" rx="77.8762" ry="72.1564" fill="#EB7B7B"/>
<ellipse cx="140.384" cy="61.3503" rx="62.0678" ry="61.3503" fill="#C33434"/>
<ellipse cx="140.793" cy="58.9571" rx="61.597" ry="58.9571" fill="#EB7B7B"/>
<ellipse cx="122.901" cy="67.7629" rx="12.4051" ry="14.1085" transform="rotate(-17.0738 122.901 67.7629)" fill="#202020"/>
<ellipse cx="119.401" cy="63.048" rx="5.82403" ry="6.92573" transform="rotate(-17.0738 119.401 63.048)" fill="#F1F1F1"/>
<ellipse cx="164.551" cy="47.3459" rx="12.4051" ry="14.1085" transform="rotate(-17.0738 164.551 47.3459)" fill="#202020"/>
<ellipse cx="161.052" cy="42.631" rx="5.82403" ry="6.92573" transform="rotate(-17.0738 161.052 42.631)" fill="#F1F1F1"/>
<path d="M144.315 74.8976C148.216 83.5867 162.13 76.7985 157.631 68.92" stroke="#202020" stroke-width="5" stroke-linecap="round"/>
<path d="M31.8292 242.048C34.4467 238.221 37.8955 229.79 31.7462 224.965C43.3785 220.157 43.9054 237.49 31.8292 242.048Z" fill="#911010"/>
<path d="M20.7674 242.178C23.9011 238.743 28.5034 230.867 23.0699 225.284C35.2937 222.072 33.3972 239.272 20.7674 242.178Z" fill="#911010"/>
<path d="M9.92467 236.714C13.6912 233.945 19.784 227.109 15.5406 220.629C28.2134 219.787 22.9365 236.247 9.92467 236.714Z" fill="#911010"/>
<ellipse cx="19.8945" cy="31.1283" rx="19.8945" ry="31.1283" transform="matrix(0.965696 0.259675 -0.257546 0.966266 21.8768 165.266)" fill="#EB7979"/>
<path d="M121.19 177.017C117.31 175.103 110.598 169.853 113.191 163.227C101.707 164.541 109.473 178.73 121.19 177.017Z" fill="#911010"/>
<path d="M131.11 174.505C127.006 173.136 119.643 168.846 121.311 161.93C110.112 164.793 119.735 177.794 131.11 174.505Z" fill="#911010"/>
<path d="M132.065 172.285C131.195 168.047 127.812 160.225 120.747 161.058C124.922 150.28 136.686 161.382 132.065 172.285Z" fill="#911010"/>
<ellipse cx="18.031" cy="29.127" rx="18.031" ry="29.127" transform="matrix(-0.708679 0.705531 0.705531 0.708679 95.0704 112.605)" fill="#C53030"/>
<ellipse cx="17.801" cy="26.3613" rx="17.801" ry="26.3613" transform="matrix(-0.708679 0.705531 0.705531 0.708679 94.0784 112.152)" fill="#EB7878"/>
<path d="M66.9598 209.004C64.1165 205.175 60.385 196.646 67.1256 191.434C54.436 186.962 53.7841 204.807 66.9598 209.004Z" fill="#911010"/>
<path d="M78.7653 211.513C75.3562 208.108 70.3618 200.196 76.3237 194.235C62.9807 191.428 64.9774 209.037 78.7653 211.513Z" fill="#911010"/>
<path d="M81.1136 209.81C82.8077 205.208 84.0971 195.822 76.2743 193.095C87.1958 184.596 92.5724 201.412 81.1136 209.81Z" fill="#911010"/>
<ellipse cx="21.8808" cy="31.7963" rx="21.8808" ry="31.7963" transform="matrix(-0.960491 0.278312 0.271453 0.962452 79.3725 132.581)" fill="#C53030"/>
<ellipse cx="21.6017" cy="28.7771" rx="21.6017" ry="28.7771" transform="matrix(-0.960467 0.278394 0.271352 0.96248 78.6231 131.638)" fill="#EB7878"/>
<path d="M407.895 84.336C407.98 85.0187 408.023 86.0853 408.023 87.536C408.023 88.9867 407.895 90.3093 407.639 91.504L402.775 91.888C402.69 94.2773 402.647 97.8187 402.647 102.512C402.647 123.419 403.586 142.107 405.463 158.576L410.199 158.96C410.37 160.325 410.455 161.52 410.455 162.544C410.455 163.483 410.327 164.677 410.071 166.128C407.084 166.043 403.628 166 399.703 166C395.778 166 392.364 166.043 389.463 166.128C389.207 164.848 389.079 163.739 389.079 162.8C389.079 161.776 389.164 160.496 389.335 158.96L393.559 158.576C393.73 152.432 393.815 145.435 393.815 137.584C393.815 129.648 393.431 118.64 392.663 104.56C391.81 106.352 389.676 110.704 386.263 117.616C378.668 132.72 373.463 143.856 370.647 151.024C368.94 151.707 367.106 152.048 365.143 152.048C363.266 152.048 361.986 152.005 361.303 151.92C358.316 144.752 354.05 136.091 348.503 125.936C343.042 115.696 339.799 109.637 338.775 107.76C338.092 119.877 337.751 130.16 337.751 138.608C337.751 146.971 337.836 153.627 338.007 158.576L342.743 158.96C342.914 160.325 342.999 161.52 342.999 162.544C342.999 163.483 342.871 164.677 342.615 166.128C339.884 166.043 336.727 166 333.143 166C329.559 166 326.444 166.043 323.799 166.128C323.543 164.848 323.415 163.739 323.415 162.8C323.415 161.776 323.5 160.496 323.671 158.96L328.151 158.576C329.943 143.045 330.839 124.656 330.839 103.408C330.839 99.312 330.711 95.472 330.455 91.888L325.719 91.504C325.463 90.3093 325.335 88.9867 325.335 87.536C325.335 86.0853 325.378 85.0187 325.463 84.336C332.46 84.1653 337.751 83.952 341.335 83.696C342.786 91.5467 351.404 110.021 367.191 139.12C380.247 113.605 387.884 95.1307 390.103 83.696C393.26 83.952 399.191 84.1653 407.895 84.336ZM437.212 91.504C436.956 90.48 436.828 89.1573 436.828 87.536C436.828 85.9147 436.871 84.848 436.956 84.336C444.465 83.3973 450.055 82.928 453.724 82.928C457.393 82.928 460.508 83.3547 463.068 84.208C465.116 100.251 472.241 125.04 484.444 158.576L489.18 158.96C489.351 160.837 489.436 162.16 489.436 162.928C489.436 163.611 489.308 164.677 489.052 166.128C486.663 166.043 482.951 166 477.916 166C472.881 166 469.383 166.043 467.42 166.128C467.164 164.848 467.036 163.653 467.036 162.544C467.036 161.349 467.121 160.155 467.292 158.96L471.772 158.576C471.345 156.528 470.663 153.584 469.724 149.744C468.785 145.819 468.273 143.643 468.188 143.216C463.324 142.96 458.033 142.832 452.316 142.832C446.684 142.832 441.393 143.003 436.444 143.344L432.86 158.576L437.724 158.96C437.895 160.837 437.98 162.16 437.98 162.928C437.98 163.611 437.852 164.677 437.596 166.128C435.548 166.043 432.177 166 427.484 166C422.876 166 419.633 166.043 417.756 166.128C417.5 164.848 417.372 163.653 417.372 162.544C417.372 161.349 417.457 160.155 417.628 158.96L422.108 158.576C432.348 130.501 439.089 108.272 442.332 91.888L437.212 91.504ZM438.748 134.384C441.649 134.469 446.001 134.512 451.804 134.512C457.607 134.512 462.3 134.384 465.884 134.128C461.873 118.939 457.649 104.901 453.212 92.016H452.444C447.409 104.219 442.844 118.341 438.748 134.384ZM535.202 115.312C537.079 115.141 538.359 115.056 539.042 115.056C539.725 115.056 540.834 115.184 542.37 115.44C542.285 118 542.242 121.243 542.242 125.168C542.242 129.093 542.285 131.995 542.37 133.872C541.09 134.128 539.853 134.256 538.658 134.256C537.463 134.256 536.311 134.171 535.202 134L534.818 129.52C530.21 129.349 526.669 129.264 524.194 129.264C521.719 129.264 518.093 129.349 513.314 129.52C513.485 142.491 513.869 152.176 514.466 158.576L521.506 159.088L521.762 162.16C521.762 163.525 521.634 164.848 521.378 166.128C519.159 166.043 515.149 166 509.346 166C503.629 166 499.874 166.043 498.082 166.128C497.826 164.848 497.698 163.653 497.698 162.544C497.698 161.349 497.783 160.155 497.954 158.96L502.69 158.576C503.373 150.213 503.714 139.461 503.714 126.32C503.714 113.179 503.202 101.616 502.178 91.632L497.826 91.248C497.655 90.1387 497.57 88.9867 497.57 87.792C497.57 86.5973 497.698 85.36 497.954 84.08C500.087 84.1653 507.682 84.208 520.738 84.208C533.794 84.208 542.242 83.824 546.082 83.056L546.722 83.696C546.039 91.2053 545.655 97.264 545.57 101.872C544.717 101.957 543.65 102 542.37 102C541.09 102 539.767 101.872 538.402 101.616L538.018 92.912C533.666 92.656 529.399 92.528 525.218 92.528C521.122 92.528 517.41 92.656 514.082 92.912C513.57 98.544 513.314 107.803 513.314 120.688H519.586C524.279 120.688 529.357 120.517 534.818 120.176L535.202 115.312ZM576.356 91.248C575.759 98.16 575.46 108.869 575.46 123.376C575.46 137.883 575.844 149.616 576.612 158.576L581.22 158.96C581.391 160.325 581.476 161.52 581.476 162.544C581.476 163.483 581.348 164.677 581.092 166.128C578.105 166.043 574.649 166 570.724 166C566.799 166 563.385 166.043 560.484 166.128C560.228 164.848 560.1 163.739 560.1 162.8C560.1 161.776 560.185 160.496 560.356 158.96L564.836 158.576C565.519 149.36 565.86 137.627 565.86 123.376C565.86 109.04 565.476 98.3307 564.708 91.248L560.356 90.864C560.185 89.4987 560.1 88.3467 560.1 87.408C560.1 86.384 560.228 85.1467 560.484 83.696C563.471 83.7813 566.927 83.824 570.852 83.824C574.777 83.824 578.191 83.7813 581.092 83.696C581.348 84.976 581.476 86.128 581.476 87.152C581.476 88.0907 581.391 89.328 581.22 90.864L576.356 91.248ZM601.877 141.04C604.522 141.04 606.57 141.851 608.021 143.472C609.472 145.093 610.197 147.099 610.197 149.488C610.197 151.792 609.813 153.669 609.045 155.12C612.8 158.192 617.109 159.728 621.973 159.728C626.922 159.728 630.634 158.619 633.109 156.4C635.584 154.096 636.821 150.981 636.821 147.056C636.821 143.131 635.456 139.76 632.725 136.944C629.994 134.128 626.666 131.781 622.741 129.904C618.901 128.027 615.061 126.064 611.221 124.016C607.381 121.883 604.096 119.067 601.365 115.568C598.634 112.069 597.269 107.931 597.269 103.152C597.269 96.5813 599.445 91.4613 603.797 87.792C608.149 84.0373 613.738 82.16 620.565 82.16C627.392 82.16 633.28 83.7813 638.229 87.024C643.264 90.2667 645.781 94.6613 645.781 100.208C645.781 105.669 643.562 108.4 639.125 108.4C636.48 108.4 634.432 107.589 632.981 105.968C631.53 104.347 630.805 102.256 630.805 99.696C630.805 97.136 631.317 95.1733 632.341 93.808C629.354 91.0773 625.685 89.712 621.333 89.712C616.981 89.712 613.696 90.8213 611.477 93.04C609.344 95.2587 608.277 98.032 608.277 101.36C608.277 104.688 609.258 107.547 611.221 109.936C613.184 112.24 615.616 114.16 618.517 115.696C621.418 117.147 624.576 118.853 627.989 120.816C631.402 122.693 634.56 124.571 637.461 126.448C640.362 128.325 642.794 130.885 644.757 134.128C646.72 137.285 647.701 140.912 647.701 145.008C647.701 151.749 645.354 157.253 640.661 161.52C636.053 165.787 630.122 167.92 622.869 167.92C615.616 167.92 609.173 166.256 603.541 162.928C597.994 159.515 595.221 154.779 595.221 148.72C595.221 143.6 597.44 141.04 601.877 141.04Z" fill="url(#paint0_linear_66_180)"/>
<defs>
<linearGradient id="paint0_linear_66_180" x1="484.5" y1="56" x2="484.5" y2="193" gradientUnits="userSpaceOnUse">
<stop stop-color="#D96E6E"/>
<stop offset="1" stop-color="#B22929"/>
</linearGradient>
</defs>
</svg>
