<svg width="653" height="251" viewBox="0 0 653 251" fill="none" xmlns="http://www.w3.org/2000/svg">
<path d="M124.897 237.198C126.118 233.259 126.857 225.182 120.439 222.669C128.999 215.552 133.895 230.178 124.897 237.198Z" fill="#911010"/>
<path d="M115.616 240.183C117.373 236.443 119.225 228.539 113.216 225.195C122.683 219.284 125.504 234.426 115.616 240.183Z" fill="#911010"/>
<path d="M105.084 238.347C107.544 235.009 110.918 227.604 105.681 223.187C116.135 219.177 115.92 234.568 105.084 238.347Z" fill="#911010"/>
<ellipse cx="17.5136" cy="27.7193" rx="17.5136" ry="27.7193" transform="matrix(0.999429 -0.0337796 0.0351897 0.999381 96.7952 174.385)" fill="#C53030"/>
<path d="M191.845 183.313C190.596 179.39 186.611 172.327 180.008 173.824C182.878 163.206 195.124 172.532 191.845 183.313Z" fill="#911010"/>
<path d="M190.484 188.22C186.448 187.409 178.99 184.222 179.754 177.494C169.514 181.512 180.127 192.661 190.484 188.22Z" fill="#911010"/>
<path d="M181.173 190.345C177.332 188.862 170.522 184.458 172.414 177.957C161.642 180.182 170.213 192.968 181.173 190.345Z" fill="#911010"/>
<ellipse cx="163.831" cy="159.255" rx="17.1592" ry="27.7186" transform="rotate(-36.527 163.831 159.255)" fill="#C53030"/>
<path d="M237.367 128.769C235.019 125.387 229.131 119.81 223.261 123.184C222.878 112.191 237.327 117.5 237.367 128.769Z" fill="#911010"/>
<path d="M235.646 137.242C233.365 133.814 227.589 128.122 221.653 131.379C221.489 120.381 235.829 125.974 235.646 137.242Z" fill="#911010"/>
<path d="M227.516 139.745C223.434 139.213 215.775 136.547 216.074 129.783C206.135 134.495 217.489 144.888 227.516 139.745Z" fill="#911010"/>
<ellipse cx="202.537" cy="117.225" rx="17.1592" ry="27.7186" transform="rotate(-60.3232 202.537 117.225)" fill="#C53030"/>
<ellipse cx="68.6366" cy="147.243" rx="63.3569" ry="64.6768" fill="#C33434"/>
<ellipse cx="68.6366" cy="143.723" rx="63.3569" ry="61.157" fill="#EB7B7B"/>
<ellipse cx="99.8751" cy="112.044" rx="76.1162" ry="75.2363" fill="#C33434"/>
<ellipse cx="99.8751" cy="108.965" rx="76.1162" ry="72.1564" fill="#EB7B7B"/>
<ellipse cx="125.394" cy="85.6462" rx="77.8762" ry="75.2363" fill="#C33434"/>
<ellipse cx="125.394" cy="82.5664" rx="77.8762" ry="72.1564" fill="#EB7B7B"/>
<ellipse cx="140.384" cy="62.9604" rx="62.0678" ry="61.3503" fill="#C33434"/>
<ellipse cx="140.793" cy="60.5672" rx="61.597" ry="58.9571" fill="#EB7B7B"/>
<ellipse cx="122.901" cy="69.373" rx="12.4051" ry="14.1085" transform="rotate(-17.0738 122.901 69.373)" fill="#202020"/>
<ellipse cx="119.401" cy="64.6581" rx="5.82403" ry="6.92573" transform="rotate(-17.0738 119.401 64.6581)" fill="#F1F1F1"/>
<ellipse cx="164.551" cy="48.956" rx="12.4051" ry="14.1085" transform="rotate(-17.0738 164.551 48.956)" fill="#202020"/>
<ellipse cx="161.052" cy="44.2411" rx="5.82403" ry="6.92573" transform="rotate(-17.0738 161.052 44.2411)" fill="#F1F1F1"/>
<path d="M144.315 76.5077C148.216 85.1968 162.13 78.4086 157.631 70.5301" stroke="#202020" stroke-width="5" stroke-linecap="round"/>
<path d="M31.8292 243.658C34.4467 239.831 37.8955 231.4 31.7462 226.575C43.3785 221.767 43.9054 239.1 31.8292 243.658Z" fill="#911010"/>
<path d="M20.7674 243.788C23.9011 240.353 28.5034 232.477 23.0699 226.894C35.2937 223.682 33.3972 240.882 20.7674 243.788Z" fill="#911010"/>
<path d="M9.92467 238.324C13.6912 235.555 19.784 228.719 15.5406 222.239C28.2134 221.397 22.9365 237.857 9.92467 238.324Z" fill="#911010"/>
<ellipse cx="19.8945" cy="31.1283" rx="19.8945" ry="31.1283" transform="matrix(0.965696 0.259675 -0.257546 0.966266 21.8768 166.876)" fill="#EB7979"/>
<path d="M121.19 178.627C117.31 176.713 110.598 171.463 113.191 164.837C101.707 166.151 109.473 180.34 121.19 178.627Z" fill="#911010"/>
<path d="M131.11 176.115C127.006 174.746 119.643 170.457 121.311 163.54C110.112 166.403 119.735 179.404 131.11 176.115Z" fill="#911010"/>
<path d="M132.065 173.895C131.195 169.657 127.812 161.835 120.747 162.668C124.922 151.89 136.686 162.992 132.065 173.895Z" fill="#911010"/>
<ellipse cx="18.031" cy="29.127" rx="18.031" ry="29.127" transform="matrix(-0.708679 0.705531 0.705531 0.708679 95.0704 114.215)" fill="#C53030"/>
<ellipse cx="17.801" cy="26.3613" rx="17.801" ry="26.3613" transform="matrix(-0.708679 0.705531 0.705531 0.708679 94.0784 113.762)" fill="#EB7878"/>
<path d="M66.9598 210.614C64.1165 206.786 60.385 198.256 67.1256 193.044C54.436 188.573 53.7841 206.417 66.9598 210.614Z" fill="#911010"/>
<path d="M78.7653 213.123C75.3562 209.718 70.3618 201.806 76.3237 195.845C62.9807 193.038 64.9774 210.647 78.7653 213.123Z" fill="#911010"/>
<path d="M81.1136 211.421C82.8077 206.818 84.0971 197.432 76.2743 194.705C87.1958 186.206 92.5724 203.022 81.1136 211.421Z" fill="#911010"/>
<ellipse cx="21.8808" cy="31.7963" rx="21.8808" ry="31.7963" transform="matrix(-0.960491 0.278312 0.271453 0.962452 79.3725 134.191)" fill="#C53030"/>
<ellipse cx="21.6017" cy="28.7771" rx="21.6017" ry="28.7771" transform="matrix(-0.960467 0.278394 0.271352 0.96248 78.6231 133.248)" fill="#EB7878"/>
<path d="M407.895 85.9461C407.98 86.6288 408.023 87.6954 408.023 89.1461C408.023 90.5968 407.895 91.9194 407.639 93.1141L402.775 93.4981C402.69 95.8874 402.647 99.4288 402.647 104.122C402.647 125.029 403.586 143.717 405.463 160.186L410.199 160.57C410.37 161.935 410.455 163.13 410.455 164.154C410.455 165.093 410.327 166.287 410.071 167.738C407.084 167.653 403.628 167.61 399.703 167.61C395.778 167.61 392.364 167.653 389.463 167.738C389.207 166.458 389.079 165.349 389.079 164.41C389.079 163.386 389.164 162.106 389.335 160.57L393.559 160.186C393.73 154.042 393.815 147.045 393.815 139.194C393.815 131.258 393.431 120.25 392.663 106.17C391.81 107.962 389.676 112.314 386.263 119.226C378.668 134.33 373.463 145.466 370.647 152.634C368.94 153.317 367.106 153.658 365.143 153.658C363.266 153.658 361.986 153.615 361.303 153.53C358.316 146.362 354.05 137.701 348.503 127.546C343.042 117.306 339.799 111.247 338.775 109.37C338.092 121.487 337.751 131.77 337.751 140.218C337.751 148.581 337.836 155.237 338.007 160.186L342.743 160.57C342.914 161.935 342.999 163.13 342.999 164.154C342.999 165.093 342.871 166.287 342.615 167.738C339.884 167.653 336.727 167.61 333.143 167.61C329.559 167.61 326.444 167.653 323.799 167.738C323.543 166.458 323.415 165.349 323.415 164.41C323.415 163.386 323.5 162.106 323.671 160.57L328.151 160.186C329.943 144.655 330.839 126.266 330.839 105.018C330.839 100.922 330.711 97.0821 330.455 93.4981L325.719 93.1141C325.463 91.9194 325.335 90.5968 325.335 89.1461C325.335 87.6954 325.378 86.6288 325.463 85.9461C332.46 85.7754 337.751 85.5621 341.335 85.3061C342.786 93.1568 351.404 111.631 367.191 140.73C380.247 115.215 387.884 96.7408 390.103 85.3061C393.26 85.5621 399.191 85.7754 407.895 85.9461ZM437.212 93.1141C436.956 92.0901 436.828 90.7674 436.828 89.1461C436.828 87.5248 436.871 86.4581 436.956 85.9461C444.465 85.0074 450.055 84.5381 453.724 84.5381C457.393 84.5381 460.508 84.9648 463.068 85.8181C465.116 101.861 472.241 126.65 484.444 160.186L489.18 160.57C489.351 162.447 489.436 163.77 489.436 164.538C489.436 165.221 489.308 166.287 489.052 167.738C486.663 167.653 482.951 167.61 477.916 167.61C472.881 167.61 469.383 167.653 467.42 167.738C467.164 166.458 467.036 165.263 467.036 164.154C467.036 162.959 467.121 161.765 467.292 160.57L471.772 160.186C471.345 158.138 470.663 155.194 469.724 151.354C468.785 147.429 468.273 145.253 468.188 144.826C463.324 144.57 458.033 144.442 452.316 144.442C446.684 144.442 441.393 144.613 436.444 144.954L432.86 160.186L437.724 160.57C437.895 162.447 437.98 163.77 437.98 164.538C437.98 165.221 437.852 166.287 437.596 167.738C435.548 167.653 432.177 167.61 427.484 167.61C422.876 167.61 419.633 167.653 417.756 167.738C417.5 166.458 417.372 165.263 417.372 164.154C417.372 162.959 417.457 161.765 417.628 160.57L422.108 160.186C432.348 132.111 439.089 109.882 442.332 93.4981L437.212 93.1141ZM438.748 135.994C441.649 136.079 446.001 136.122 451.804 136.122C457.607 136.122 462.3 135.994 465.884 135.738C461.873 120.549 457.649 106.511 453.212 93.6261H452.444C447.409 105.829 442.844 119.951 438.748 135.994ZM535.202 116.922C537.079 116.751 538.359 116.666 539.042 116.666C539.725 116.666 540.834 116.794 542.37 117.05C542.285 119.61 542.242 122.853 542.242 126.778C542.242 130.703 542.285 133.605 542.37 135.482C541.09 135.738 539.853 135.866 538.658 135.866C537.463 135.866 536.311 135.781 535.202 135.61L534.818 131.13C530.21 130.959 526.669 130.874 524.194 130.874C521.719 130.874 518.093 130.959 513.314 131.13C513.485 144.101 513.869 153.786 514.466 160.186L521.506 160.698L521.762 163.77C521.762 165.135 521.634 166.458 521.378 167.738C519.159 167.653 515.149 167.61 509.346 167.61C503.629 167.61 499.874 167.653 498.082 167.738C497.826 166.458 497.698 165.263 497.698 164.154C497.698 162.959 497.783 161.765 497.954 160.57L502.69 160.186C503.373 151.823 503.714 141.071 503.714 127.93C503.714 114.789 503.202 103.226 502.178 93.2421L497.826 92.8581C497.655 91.7488 497.57 90.5968 497.57 89.4021C497.57 88.2074 497.698 86.9701 497.954 85.6901C500.087 85.7754 507.682 85.8181 520.738 85.8181C533.794 85.8181 542.242 85.4341 546.082 84.6661L546.722 85.3061C546.039 92.8154 545.655 98.8741 545.57 103.482C544.717 103.567 543.65 103.61 542.37 103.61C541.09 103.61 539.767 103.482 538.402 103.226L538.018 94.5221C533.666 94.2661 529.399 94.1381 525.218 94.1381C521.122 94.1381 517.41 94.2661 514.082 94.5221C513.57 100.154 513.314 109.413 513.314 122.298H519.586C524.279 122.298 529.357 122.127 534.818 121.786L535.202 116.922ZM576.356 92.8581C575.759 99.7701 575.46 110.479 575.46 124.986C575.46 139.493 575.844 151.226 576.612 160.186L581.22 160.57C581.391 161.935 581.476 163.13 581.476 164.154C581.476 165.093 581.348 166.287 581.092 167.738C578.105 167.653 574.649 167.61 570.724 167.61C566.799 167.61 563.385 167.653 560.484 167.738C560.228 166.458 560.1 165.349 560.1 164.41C560.1 163.386 560.185 162.106 560.356 160.57L564.836 160.186C565.519 150.97 565.86 139.237 565.86 124.986C565.86 110.65 565.476 99.9408 564.708 92.8581L560.356 92.4741C560.185 91.1088 560.1 89.9568 560.1 89.0181C560.1 87.9941 560.228 86.7568 560.484 85.3061C563.471 85.3914 566.927 85.4341 570.852 85.4341C574.777 85.4341 578.191 85.3914 581.092 85.3061C581.348 86.5861 581.476 87.7381 581.476 88.7621C581.476 89.7008 581.391 90.9381 581.22 92.4741L576.356 92.8581ZM601.877 142.65C604.522 142.65 606.57 143.461 608.021 145.082C609.472 146.703 610.197 148.709 610.197 151.098C610.197 153.402 609.813 155.279 609.045 156.73C612.8 159.802 617.109 161.338 621.973 161.338C626.922 161.338 630.634 160.229 633.109 158.01C635.584 155.706 636.821 152.591 636.821 148.666C636.821 144.741 635.456 141.37 632.725 138.554C629.994 135.738 626.666 133.391 622.741 131.514C618.901 129.637 615.061 127.674 611.221 125.626C607.381 123.493 604.096 120.677 601.365 117.178C598.634 113.679 597.269 109.541 597.269 104.762C597.269 98.1914 599.445 93.0714 603.797 89.4021C608.149 85.6474 613.738 83.7701 620.565 83.7701C627.392 83.7701 633.28 85.3914 638.229 88.6341C643.264 91.8768 645.781 96.2714 645.781 101.818C645.781 107.279 643.562 110.01 639.125 110.01C636.48 110.01 634.432 109.199 632.981 107.578C631.53 105.957 630.805 103.866 630.805 101.306C630.805 98.7461 631.317 96.7834 632.341 95.4181C629.354 92.6874 625.685 91.3221 621.333 91.3221C616.981 91.3221 613.696 92.4314 611.477 94.6501C609.344 96.8688 608.277 99.6421 608.277 102.97C608.277 106.298 609.258 109.157 611.221 111.546C613.184 113.85 615.616 115.77 618.517 117.306C621.418 118.757 624.576 120.463 627.989 122.426C631.402 124.303 634.56 126.181 637.461 128.058C640.362 129.935 642.794 132.495 644.757 135.738C646.72 138.895 647.701 142.522 647.701 146.618C647.701 153.359 645.354 158.863 640.661 163.13C636.053 167.397 630.122 169.53 622.869 169.53C615.616 169.53 609.173 167.866 603.541 164.538C597.994 161.125 595.221 156.389 595.221 150.33C595.221 145.21 597.44 142.65 601.877 142.65Z" fill="url(#paint0_linear_66_180)"/>
<path d="M323.528 38.0181C323.528 38.0181 323.539 36.8288 323.56 34.4501C323.56 34.2901 323.555 34.1674 323.544 34.0821C323.096 34.0821 322.776 34.0874 322.584 34.0981C322.52 33.9274 322.488 33.7621 322.488 33.6021C322.488 33.4314 322.499 33.3034 322.52 33.2181H323.496L323.416 32.0341C323.683 31.9488 323.96 31.9061 324.248 31.9061C324.547 31.9061 324.792 31.9274 324.984 31.9701L324.84 33.2021C325.427 33.1914 326.019 33.1594 326.616 33.1061C326.68 33.2448 326.712 33.3994 326.712 33.5701C326.712 33.7301 326.691 33.9274 326.648 34.1621C326.253 34.1408 325.629 34.1194 324.776 34.0981C324.755 34.3114 324.744 34.6261 324.744 35.0421V38.2901C324.744 38.5674 324.755 38.7968 324.776 38.9781C324.808 39.1488 324.877 39.3088 324.984 39.4581C325.101 39.5968 325.267 39.6661 325.48 39.6661C325.949 39.6661 326.397 39.5008 326.824 39.1701C327.048 39.4901 327.16 39.9221 327.16 40.4661C326.573 40.7221 326.061 40.8501 325.624 40.8501C325.197 40.8501 324.856 40.7914 324.6 40.6741C324.344 40.5674 324.147 40.4394 324.008 40.2901C323.869 40.1301 323.763 39.9114 323.688 39.6341C323.581 39.2394 323.528 38.7008 323.528 38.0181ZM334.322 35.0101L334.306 36.5621C334.306 37.6928 334.37 38.7328 334.498 39.6821L335.058 39.7301C335.08 39.9008 335.09 40.0501 335.09 40.1781C335.09 40.2954 335.074 40.4448 335.042 40.6261C334.669 40.6154 334.226 40.6101 333.714 40.6101C333.213 40.6101 332.781 40.6154 332.418 40.6261C332.386 40.4661 332.37 40.3274 332.37 40.2101C332.37 40.0821 332.381 39.9221 332.402 39.7301L332.962 39.6821C333.048 38.5301 333.09 37.5061 333.09 36.6101C333.09 35.7141 333.01 35.0528 332.85 34.6261C332.701 34.1994 332.392 33.9861 331.922 33.9861C331.325 33.9861 330.685 34.3274 330.002 35.0101V36.5141C330.002 37.8261 330.05 38.8821 330.146 39.6821L330.738 39.7301C330.76 39.9008 330.77 40.0501 330.77 40.1781C330.77 40.2954 330.754 40.4448 330.722 40.6261C330.349 40.6154 329.917 40.6101 329.426 40.6101C328.936 40.6101 328.509 40.6154 328.146 40.6261C328.114 40.4661 328.098 40.3274 328.098 40.2101C328.098 40.0821 328.109 39.9221 328.13 39.7301L328.69 39.6821C328.786 38.6794 328.834 37.7514 328.834 36.8981V34.7061C328.834 32.7861 328.808 31.4794 328.754 30.7861L328.114 30.7381C328.082 30.5994 328.066 30.4394 328.066 30.2581C328.066 30.0661 328.072 29.9274 328.082 29.8421C329.053 29.7888 329.746 29.7408 330.162 29.6981L330.226 29.7781C330.077 31.0474 330.002 32.4768 330.002 34.0661C330.322 33.7461 330.706 33.4848 331.154 33.2821C331.602 33.0688 332.029 32.9621 332.434 32.9621C333.693 32.9621 334.322 33.6448 334.322 35.0101ZM337.222 39.6821C337.318 38.6368 337.366 37.6821 337.366 36.8181C337.366 35.9434 337.323 35.0368 337.238 34.0981L336.646 34.0501C336.614 33.8688 336.598 33.6981 336.598 33.5381C336.598 33.3674 336.603 33.2394 336.614 33.1541C337.232 33.1328 337.894 33.0848 338.598 33.0101L338.678 33.0901C338.582 33.7194 338.534 34.7754 338.534 36.2581C338.534 37.7408 338.582 38.8821 338.678 39.6821L339.27 39.7301C339.291 39.9008 339.302 40.0501 339.302 40.1781C339.302 40.2954 339.286 40.4448 339.254 40.6261C338.88 40.6154 338.448 40.6101 337.958 40.6101C337.467 40.6101 337.04 40.6154 336.678 40.6261C336.646 40.4661 336.63 40.3008 336.63 40.1301C336.63 39.9594 336.64 39.8261 336.662 39.7301L337.222 39.6821ZM338.838 30.8021C338.838 31.4634 338.496 31.7941 337.814 31.7941C337.28 31.7941 337.014 31.5221 337.014 30.9781C337.014 30.3061 337.355 29.9701 338.038 29.9701C338.571 29.9701 338.838 30.2474 338.838 30.8021ZM343.185 32.9621C343.931 32.9621 344.523 33.1381 344.961 33.4901C345.409 33.8421 345.633 34.3008 345.633 34.8661C345.633 35.4208 345.382 35.6981 344.881 35.6981C344.582 35.6981 344.347 35.6074 344.177 35.4261C344.017 35.2341 343.937 35.0101 343.937 34.7541C343.937 34.4981 343.979 34.2848 344.065 34.1141C343.809 33.9114 343.505 33.8101 343.153 33.8101C342.801 33.8101 342.507 33.8954 342.273 34.0661C342.049 34.2368 341.937 34.4874 341.937 34.8181C341.937 35.1488 342.065 35.4368 342.321 35.6821C342.587 35.9274 342.907 36.1301 343.281 36.2901C343.654 36.4394 344.027 36.5994 344.401 36.7701C344.774 36.9301 345.089 37.1648 345.345 37.4741C345.611 37.7728 345.745 38.1461 345.745 38.5941C345.745 39.2874 345.51 39.8368 345.041 40.2421C344.582 40.6474 343.953 40.8501 343.153 40.8501C342.353 40.8501 341.697 40.6794 341.185 40.3381C340.683 39.9968 340.433 39.5488 340.433 38.9941V38.9301C340.433 38.3541 340.683 38.0661 341.185 38.0661C341.483 38.0661 341.713 38.1621 341.873 38.3541C342.043 38.5354 342.129 38.7488 342.129 38.9941C342.129 39.2394 342.102 39.4314 342.049 39.5701C342.262 39.7088 342.598 39.7781 343.057 39.7781C343.526 39.7781 343.878 39.6981 344.113 39.5381C344.358 39.3781 344.481 39.1594 344.481 38.8821C344.481 38.5941 344.347 38.3381 344.081 38.1141C343.825 37.8901 343.51 37.7034 343.137 37.5541C342.763 37.3941 342.39 37.2288 342.017 37.0581C341.643 36.8768 341.323 36.6208 341.057 36.2901C340.801 35.9594 340.673 35.5648 340.673 35.1061C340.673 34.4448 340.902 33.9221 341.361 33.5381C341.83 33.1541 342.438 32.9621 343.185 32.9621ZM351.565 39.6821C351.661 38.6368 351.709 37.6821 351.709 36.8181C351.709 35.9434 351.667 35.0368 351.581 34.0981L350.989 34.0501C350.957 33.8688 350.941 33.6981 350.941 33.5381C350.941 33.3674 350.947 33.2394 350.957 33.1541C351.576 33.1328 352.237 33.0848 352.941 33.0101L353.021 33.0901C352.925 33.7194 352.877 34.7754 352.877 36.2581C352.877 37.7408 352.925 38.8821 353.021 39.6821L353.613 39.7301C353.635 39.9008 353.645 40.0501 353.645 40.1781C353.645 40.2954 353.629 40.4448 353.597 40.6261C353.224 40.6154 352.792 40.6101 352.301 40.6101C351.811 40.6101 351.384 40.6154 351.021 40.6261C350.989 40.4661 350.973 40.3008 350.973 40.1301C350.973 39.9594 350.984 39.8261 351.005 39.7301L351.565 39.6821ZM353.181 30.8021C353.181 31.4634 352.84 31.7941 352.157 31.7941C351.624 31.7941 351.357 31.5221 351.357 30.9781C351.357 30.3061 351.699 29.9701 352.381 29.9701C352.915 29.9701 353.181 30.2474 353.181 30.8021ZM357.529 32.9621C358.275 32.9621 358.867 33.1381 359.305 33.4901C359.753 33.8421 359.977 34.3008 359.977 34.8661C359.977 35.4208 359.726 35.6981 359.225 35.6981C358.926 35.6981 358.691 35.6074 358.521 35.4261C358.361 35.2341 358.281 35.0101 358.281 34.7541C358.281 34.4981 358.323 34.2848 358.409 34.1141C358.153 33.9114 357.849 33.8101 357.497 33.8101C357.145 33.8101 356.851 33.8954 356.617 34.0661C356.393 34.2368 356.281 34.4874 356.281 34.8181C356.281 35.1488 356.409 35.4368 356.664 35.6821C356.931 35.9274 357.251 36.1301 357.625 36.2901C357.998 36.4394 358.371 36.5994 358.745 36.7701C359.118 36.9301 359.433 37.1648 359.689 37.4741C359.955 37.7728 360.089 38.1461 360.089 38.5941C360.089 39.2874 359.854 39.8368 359.385 40.2421C358.926 40.6474 358.297 40.8501 357.497 40.8501C356.697 40.8501 356.041 40.6794 355.529 40.3381C355.027 39.9968 354.777 39.5488 354.777 38.9941V38.9301C354.777 38.3541 355.027 38.0661 355.529 38.0661C355.827 38.0661 356.057 38.1621 356.217 38.3541C356.387 38.5354 356.473 38.7488 356.473 38.9941C356.473 39.2394 356.446 39.4314 356.393 39.5701C356.606 39.7088 356.942 39.7781 357.401 39.7781C357.87 39.7781 358.222 39.6981 358.457 39.5381C358.702 39.3781 358.825 39.1594 358.825 38.8821C358.825 38.5941 358.691 38.3381 358.424 38.1141C358.169 37.8901 357.854 37.7034 357.481 37.5541C357.107 37.3941 356.734 37.2288 356.361 37.0581C355.987 36.8768 355.667 36.6208 355.401 36.2901C355.145 35.9594 355.017 35.5648 355.017 35.1061C355.017 34.4448 355.246 33.9221 355.705 33.5381C356.174 33.1541 356.782 32.9621 357.529 32.9621ZM370.661 35.0901L370.597 37.3941C370.597 38.1194 370.64 38.8288 370.725 39.5221L371.317 39.5701C371.338 39.7408 371.349 39.9008 371.349 40.0501C371.349 40.1888 371.333 40.3381 371.301 40.4981C370.992 40.5088 370.389 40.5621 369.493 40.6581C369.418 40.4554 369.36 40.2048 369.317 39.9061C368.485 40.5354 367.765 40.8501 367.157 40.8501C366.56 40.8501 366.09 40.6581 365.749 40.2741C365.418 39.8794 365.253 39.3248 365.253 38.6101C365.253 37.8848 365.477 37.3141 365.925 36.8981C366.384 36.4821 366.954 36.2741 367.637 36.2741C368.33 36.2741 368.922 36.4021 369.413 36.6581C369.424 36.5408 369.429 36.3488 369.429 36.0821C369.429 35.2928 369.317 34.7274 369.093 34.3861C368.88 34.0341 368.549 33.8581 368.101 33.8581C367.653 33.8581 367.328 33.9434 367.125 34.1141C367.21 34.2848 367.253 34.4981 367.253 34.7541C367.253 35.0101 367.168 35.2341 366.997 35.4261C366.837 35.6074 366.608 35.6981 366.309 35.6981C365.808 35.6981 365.557 35.4048 365.557 34.8181C365.557 34.2208 365.781 33.7621 366.229 33.4421C366.677 33.1221 367.306 32.9621 368.117 32.9621C368.928 32.9621 369.552 33.1541 369.989 33.5381C370.437 33.9114 370.661 34.4288 370.661 35.0901ZM369.349 37.6661C368.912 37.2928 368.442 37.1061 367.941 37.1061C366.981 37.1061 366.501 37.5328 366.501 38.3861C366.501 39.2608 366.88 39.6981 367.637 39.6981C367.914 39.6981 368.208 39.6288 368.517 39.4901C368.837 39.3408 369.088 39.1594 369.269 38.9461C369.322 38.3061 369.349 37.8794 369.349 37.6661ZM376.903 38.0181C376.903 38.0181 376.914 36.8288 376.935 34.4501C376.935 34.2901 376.93 34.1674 376.919 34.0821C376.471 34.0821 376.151 34.0874 375.959 34.0981C375.895 33.9274 375.863 33.7621 375.863 33.6021C375.863 33.4314 375.874 33.3034 375.895 33.2181H376.871L376.791 32.0341C377.058 31.9488 377.335 31.9061 377.623 31.9061C377.922 31.9061 378.167 31.9274 378.359 31.9701L378.215 33.2021C378.802 33.1914 379.394 33.1594 379.991 33.1061C380.055 33.2448 380.087 33.3994 380.087 33.5701C380.087 33.7301 380.066 33.9274 380.023 34.1621C379.628 34.1408 379.004 34.1194 378.151 34.0981C378.13 34.3114 378.119 34.6261 378.119 35.0421V38.2901C378.119 38.5674 378.13 38.7968 378.151 38.9781C378.183 39.1488 378.252 39.3088 378.359 39.4581C378.476 39.5968 378.642 39.6661 378.855 39.6661C379.324 39.6661 379.772 39.5008 380.199 39.1701C380.423 39.4901 380.535 39.9221 380.535 40.4661C379.948 40.7221 379.436 40.8501 378.999 40.8501C378.572 40.8501 378.231 40.7914 377.975 40.6741C377.719 40.5674 377.522 40.4394 377.383 40.2901C377.244 40.1301 377.138 39.9114 377.063 39.6341C376.956 39.2394 376.903 38.7008 376.903 38.0181ZM386.817 35.0901L386.753 37.3941C386.753 38.1194 386.796 38.8288 386.881 39.5221L387.473 39.5701C387.495 39.7408 387.505 39.9008 387.505 40.0501C387.505 40.1888 387.489 40.3381 387.457 40.4981C387.148 40.5088 386.545 40.5621 385.649 40.6581C385.575 40.4554 385.516 40.2048 385.473 39.9061C384.641 40.5354 383.921 40.8501 383.313 40.8501C382.716 40.8501 382.247 40.6581 381.905 40.2741C381.575 39.8794 381.409 39.3248 381.409 38.6101C381.409 37.8848 381.633 37.3141 382.081 36.8981C382.54 36.4821 383.111 36.2741 383.793 36.2741C384.487 36.2741 385.079 36.4021 385.569 36.6581C385.58 36.5408 385.585 36.3488 385.585 36.0821C385.585 35.2928 385.473 34.7274 385.249 34.3861C385.036 34.0341 384.705 33.8581 384.257 33.8581C383.809 33.8581 383.484 33.9434 383.281 34.1141C383.367 34.2848 383.409 34.4981 383.409 34.7541C383.409 35.0101 383.324 35.2341 383.153 35.4261C382.993 35.6074 382.764 35.6981 382.465 35.6981C381.964 35.6981 381.713 35.4048 381.713 34.8181C381.713 34.2208 381.937 33.7621 382.385 33.4421C382.833 33.1221 383.463 32.9621 384.273 32.9621C385.084 32.9621 385.708 33.1541 386.145 33.5381C386.593 33.9114 386.817 34.4288 386.817 35.0901ZM385.505 37.6661C385.068 37.2928 384.599 37.1061 384.097 37.1061C383.137 37.1061 382.657 37.5328 382.657 38.3861C382.657 39.2608 383.036 39.6981 383.793 39.6981C384.071 39.6981 384.364 39.6288 384.673 39.4901C384.993 39.3408 385.244 39.1594 385.425 38.9461C385.479 38.3061 385.505 37.8794 385.505 37.6661ZM389.308 39.6821C389.404 38.6154 389.452 37.6394 389.452 36.7541C389.452 35.8581 389.409 34.9728 389.324 34.0981L388.732 34.0501C388.7 33.8794 388.684 33.7034 388.684 33.5221C388.684 33.3408 388.689 33.2181 388.7 33.1541C389.244 33.1434 389.905 33.0954 390.684 33.0101L390.764 33.0901C390.753 33.1541 390.721 33.4688 390.668 34.0341C390.913 33.7248 391.196 33.4688 391.516 33.2661C391.847 33.0634 392.167 32.9621 392.476 32.9621C392.796 32.9621 393.073 33.0741 393.308 33.2981C393.543 33.5221 393.66 33.8154 393.66 34.1781C393.66 34.7754 393.409 35.0741 392.908 35.0741C392.62 35.0741 392.391 34.9834 392.22 34.8021C392.049 34.6101 391.964 34.3594 391.964 34.0501C391.943 34.0394 391.905 34.0341 391.852 34.0341C391.457 34.0341 391.052 34.3328 390.636 34.9301C390.625 35.2288 390.62 35.9008 390.62 36.9461C390.62 37.9808 390.668 38.8928 390.764 39.6821L391.356 39.7301C391.377 39.9648 391.388 40.1301 391.388 40.2261C391.388 40.3114 391.372 40.4448 391.34 40.6261C391.041 40.6154 390.604 40.6101 390.028 40.6101C389.452 40.6101 389.031 40.6154 388.764 40.6261C388.732 40.4661 388.716 40.3168 388.716 40.1781C388.716 40.0288 388.727 39.8794 388.748 39.7301L389.308 39.6821ZM399.111 33.3461L399.127 32.3381C399.127 31.6981 399.105 31.1808 399.063 30.7861L398.423 30.7381C398.391 30.6101 398.375 30.4448 398.375 30.2421C398.375 30.0394 398.38 29.9061 398.391 29.8421C399.34 29.7994 400.033 29.7514 400.471 29.6981L400.535 29.7781C400.375 31.1754 400.295 32.9781 400.295 35.1861C400.295 37.3834 400.343 38.8341 400.439 39.5381L401.031 39.5701C401.052 39.8048 401.063 39.9808 401.063 40.0981C401.063 40.2048 401.047 40.3381 401.015 40.4981C400.599 40.5194 400.017 40.5728 399.271 40.6581C399.185 40.4874 399.121 40.2154 399.079 39.8421C398.343 40.5141 397.596 40.8501 396.839 40.8501C396.092 40.8501 395.516 40.5088 395.111 39.8261C394.716 39.1434 394.519 38.1781 394.519 36.9301C394.519 35.6714 394.769 34.6954 395.271 34.0021C395.783 33.3088 396.513 32.9621 397.463 32.9621C397.996 32.9621 398.545 33.0901 399.111 33.3461ZM397.479 33.9061C396.412 33.9061 395.879 34.9674 395.879 37.0901C395.879 37.8901 395.996 38.5141 396.231 38.9621C396.476 39.3994 396.812 39.6181 397.239 39.6181C397.527 39.6181 397.841 39.5274 398.183 39.3461C398.535 39.1648 398.839 38.9354 399.095 38.6581C399.116 37.3354 399.127 35.9061 399.127 34.3701C398.444 34.0608 397.895 33.9061 397.479 33.9061ZM403.159 39.6821C403.255 38.6368 403.303 37.6821 403.303 36.8181C403.303 35.9434 403.26 35.0368 403.175 34.0981L402.583 34.0501C402.551 33.8688 402.535 33.6981 402.535 33.5381C402.535 33.3674 402.54 33.2394 402.551 33.1541C403.17 33.1328 403.831 33.0848 404.535 33.0101L404.615 33.0901C404.519 33.7194 404.471 34.7754 404.471 36.2581C404.471 37.7408 404.519 38.8821 404.615 39.6821L405.207 39.7301C405.228 39.9008 405.239 40.0501 405.239 40.1781C405.239 40.2954 405.223 40.4448 405.191 40.6261C404.818 40.6154 404.386 40.6101 403.895 40.6101C403.404 40.6101 402.978 40.6154 402.615 40.6261C402.583 40.4661 402.567 40.3008 402.567 40.1301C402.567 39.9594 402.578 39.8261 402.599 39.7301L403.159 39.6821ZM404.775 30.8021C404.775 31.4634 404.434 31.7941 403.751 31.7941C403.218 31.7941 402.951 31.5221 402.951 30.9781C402.951 30.3061 403.292 29.9701 403.975 29.9701C404.508 29.9701 404.775 30.2474 404.775 30.8021ZM409.426 32.9621C409.554 32.9621 409.65 32.9674 409.714 32.9781C410.386 31.9541 411.117 31.4421 411.906 31.4421C412.6 31.4421 412.946 31.7781 412.946 32.4501C412.946 32.9194 412.712 33.1541 412.242 33.1541C411.784 33.1541 411.517 32.9141 411.442 32.4341C411.133 32.4341 410.845 32.6634 410.578 33.1221C411.613 33.4634 412.13 34.3168 412.13 35.6821C412.13 36.5141 411.965 37.2074 411.634 37.7621C411.261 38.3808 410.525 38.6901 409.426 38.6901C408.968 38.6901 408.594 38.6368 408.306 38.5301C408.082 38.9248 407.917 39.3568 407.81 39.8261C407.992 39.8581 408.184 39.8741 408.386 39.8741C408.589 39.8741 408.994 39.8368 409.602 39.7621C410.21 39.6874 410.648 39.6501 410.914 39.6501C411.469 39.6501 411.917 39.7888 412.258 40.0661C412.6 40.3434 412.77 40.7701 412.77 41.3461C412.77 41.9221 412.584 42.4234 412.21 42.8501C411.56 43.5968 410.546 43.9701 409.17 43.9701C408.242 43.9701 407.533 43.8528 407.042 43.6181C406.552 43.3834 406.306 42.9461 406.306 42.3061C406.306 41.8368 406.557 41.3514 407.058 40.8501C406.856 40.7008 406.754 40.4928 406.754 40.2261C406.754 39.6608 407.026 38.9674 407.57 38.1461C407.005 37.6874 406.722 36.8661 406.722 35.6821C406.722 33.8688 407.624 32.9621 409.426 32.9621ZM408.018 35.6981C408.018 36.9568 408.488 37.5861 409.426 37.5861C410.365 37.5861 410.834 36.9568 410.834 35.6981C410.834 34.4394 410.365 33.8101 409.426 33.8101C408.488 33.8101 408.018 34.4394 408.018 35.6981ZM407.602 42.0661C407.602 42.7488 408.226 43.0901 409.474 43.0901C410.008 43.0901 410.482 42.9728 410.898 42.7381C411.325 42.5034 411.538 42.1514 411.538 41.6821C411.538 41.1594 411.256 40.8981 410.69 40.8981C410.413 40.8981 409.976 40.9301 409.378 40.9941C408.781 41.0688 408.301 41.1061 407.938 41.1061H407.81C407.672 41.4048 407.602 41.7248 407.602 42.0661ZM414.495 39.6821C414.591 38.6154 414.639 37.6394 414.639 36.7541C414.639 35.8581 414.597 34.9728 414.511 34.0981L413.919 34.0501C413.887 33.8794 413.871 33.7034 413.871 33.5221C413.871 33.3408 413.877 33.2181 413.887 33.1541C414.431 33.1434 415.093 33.0954 415.871 33.0101L415.951 33.0901C415.941 33.1541 415.909 33.4688 415.855 34.0341C416.101 33.7248 416.383 33.4688 416.703 33.2661C417.034 33.0634 417.354 32.9621 417.663 32.9621C417.983 32.9621 418.261 33.0741 418.495 33.2981C418.73 33.5221 418.847 33.8154 418.847 34.1781C418.847 34.7754 418.597 35.0741 418.095 35.0741C417.807 35.0741 417.578 34.9834 417.407 34.8021C417.237 34.6101 417.151 34.3594 417.151 34.0501C417.13 34.0394 417.093 34.0341 417.039 34.0341C416.645 34.0341 416.239 34.3328 415.823 34.9301C415.813 35.2288 415.807 35.9008 415.807 36.9461C415.807 37.9808 415.855 38.8928 415.951 39.6821L416.543 39.7301C416.565 39.9648 416.575 40.1301 416.575 40.2261C416.575 40.3114 416.559 40.4448 416.527 40.6261C416.229 40.6154 415.791 40.6101 415.215 40.6101C414.639 40.6101 414.218 40.6154 413.951 40.6261C413.919 40.4661 413.903 40.3168 413.903 40.1781C413.903 40.0288 413.914 39.8794 413.935 39.7301L414.495 39.6821ZM425.114 35.0901L425.05 37.3941C425.05 38.1194 425.093 38.8288 425.178 39.5221L425.77 39.5701C425.792 39.7408 425.802 39.9008 425.802 40.0501C425.802 40.1888 425.786 40.3381 425.754 40.4981C425.445 40.5088 424.842 40.5621 423.946 40.6581C423.872 40.4554 423.813 40.2048 423.77 39.9061C422.938 40.5354 422.218 40.8501 421.61 40.8501C421.013 40.8501 420.544 40.6581 420.202 40.2741C419.872 39.8794 419.706 39.3248 419.706 38.6101C419.706 37.8848 419.93 37.3141 420.378 36.8981C420.837 36.4821 421.408 36.2741 422.09 36.2741C422.784 36.2741 423.376 36.4021 423.866 36.6581C423.877 36.5408 423.882 36.3488 423.882 36.0821C423.882 35.2928 423.77 34.7274 423.546 34.3861C423.333 34.0341 423.002 33.8581 422.554 33.8581C422.106 33.8581 421.781 33.9434 421.578 34.1141C421.664 34.2848 421.706 34.4981 421.706 34.7541C421.706 35.0101 421.621 35.2341 421.45 35.4261C421.29 35.6074 421.061 35.6981 420.762 35.6981C420.261 35.6981 420.01 35.4048 420.01 34.8181C420.01 34.2208 420.234 33.7621 420.682 33.4421C421.13 33.1221 421.76 32.9621 422.57 32.9621C423.381 32.9621 424.005 33.1541 424.442 33.5381C424.89 33.9114 425.114 34.4288 425.114 35.0901ZM423.802 37.6661C423.365 37.2928 422.896 37.1061 422.394 37.1061C421.434 37.1061 420.954 37.5328 420.954 38.3861C420.954 39.2608 421.333 39.6981 422.09 39.6981C422.368 39.6981 422.661 39.6288 422.97 39.4901C423.29 39.3408 423.541 39.1594 423.722 38.9461C423.776 38.3061 423.802 37.8794 423.802 37.6661ZM431.861 33.3461L431.877 32.3381C431.877 31.6981 431.855 31.1808 431.813 30.7861L431.173 30.7381C431.141 30.6101 431.125 30.4448 431.125 30.2421C431.125 30.0394 431.13 29.9061 431.141 29.8421C432.09 29.7994 432.783 29.7514 433.221 29.6981L433.285 29.7781C433.125 31.1754 433.045 32.9781 433.045 35.1861C433.045 37.3834 433.093 38.8341 433.189 39.5381L433.781 39.5701C433.802 39.8048 433.813 39.9808 433.813 40.0981C433.813 40.2048 433.797 40.3381 433.765 40.4981C433.349 40.5194 432.767 40.5728 432.021 40.6581C431.935 40.4874 431.871 40.2154 431.829 39.8421C431.093 40.5141 430.346 40.8501 429.589 40.8501C428.842 40.8501 428.266 40.5088 427.861 39.8261C427.466 39.1434 427.269 38.1781 427.269 36.9301C427.269 35.6714 427.519 34.6954 428.021 34.0021C428.533 33.3088 429.263 32.9621 430.213 32.9621C430.746 32.9621 431.295 33.0901 431.861 33.3461ZM430.229 33.9061C429.162 33.9061 428.629 34.9674 428.629 37.0901C428.629 37.8901 428.746 38.5141 428.981 38.9621C429.226 39.3994 429.562 39.6181 429.989 39.6181C430.277 39.6181 430.591 39.5274 430.933 39.3461C431.285 39.1648 431.589 38.9354 431.845 38.6581C431.866 37.3354 431.877 35.9061 431.877 34.3701C431.194 34.0608 430.645 33.9061 430.229 33.9061ZM437.941 37.0581C437.418 37.0581 436.933 37.0314 436.485 36.9781C436.506 38.7914 437.109 39.6981 438.293 39.6981C438.89 39.6981 439.552 39.3674 440.277 38.7061C440.586 39.0261 440.784 39.4474 440.869 39.9701C439.994 40.5568 439.066 40.8501 438.085 40.8501C437.104 40.8501 436.373 40.5141 435.893 39.8421C435.413 39.1594 435.173 38.1621 435.173 36.8501C435.173 35.5381 435.44 34.5621 435.973 33.9221C436.517 33.2821 437.285 32.9621 438.277 32.9621C439.013 32.9621 439.621 33.1861 440.101 33.6341C440.581 34.0821 440.821 34.6314 440.821 35.2821C440.832 35.9328 440.778 36.3968 440.661 36.6741C439.861 36.9301 438.954 37.0581 437.941 37.0581ZM438.165 33.8581C437.173 33.8581 436.618 34.5888 436.501 36.0501C436.981 36.1034 437.509 36.1301 438.085 36.1301C438.661 36.1301 439.109 36.0768 439.429 35.9701C439.472 35.7034 439.493 35.5061 439.493 35.3781C439.493 34.9088 439.37 34.5408 439.125 34.2741C438.89 33.9968 438.57 33.8581 438.165 33.8581Z" fill="#B25E5E"/>
<path d="M315.693 27.0048C315.911 27.1743 316.225 27.1351 316.395 26.9171C316.564 26.6991 316.525 26.385 316.307 26.2154L316 26.6101L315.693 27.0048ZM202.538 14.42C202.433 14.6754 202.554 14.9676 202.81 15.0726L206.972 16.7836C207.227 16.8886 207.519 16.7667 207.624 16.5113C207.729 16.2559 207.608 15.9637 207.352 15.8587L203.653 14.3378L205.173 10.6382C205.278 10.3828 205.157 10.0907 204.901 9.98566C204.646 9.88066 204.354 10.0026 204.249 10.258L202.538 14.42ZM316 26.6101L316.307 26.2154C291.424 6.86184 263.033 3.85575 240.897 5.67429C229.827 6.58372 220.31 8.70027 213.561 10.5896C210.185 11.5343 207.501 12.4226 205.658 13.0753C204.737 13.4017 204.026 13.6693 203.545 13.8556C203.304 13.9488 203.121 14.0216 202.997 14.0714C202.935 14.0963 202.888 14.1154 202.857 14.1284C202.841 14.1349 202.829 14.1399 202.82 14.1433C202.816 14.145 202.813 14.1463 202.811 14.1472C202.81 14.1476 202.809 14.148 202.809 14.1482C202.808 14.1485 202.807 14.1487 203 14.6101C203.193 15.0715 203.193 15.0715 203.193 15.0714C203.193 15.0712 203.194 15.071 203.195 15.0706C203.196 15.0699 203.199 15.0688 203.203 15.0673C203.21 15.0643 203.221 15.0598 203.236 15.0537C203.266 15.0415 203.311 15.0232 203.37 14.9991C203.49 14.9509 203.669 14.8797 203.906 14.7882C204.379 14.6051 205.08 14.341 205.992 14.0179C207.816 13.3719 210.479 12.4906 213.83 11.5525C220.534 9.67619 229.986 7.574 240.978 6.67093C262.967 4.86447 291.076 7.85838 315.693 27.0048L316 26.6101Z" fill="#B25E5E"/>
<defs>
<linearGradient id="paint0_linear_66_180" x1="484.5" y1="57.6101" x2="484.5" y2="194.61" gradientUnits="userSpaceOnUse">
<stop stop-color="#D96E6E"/>
<stop offset="1" stop-color="#B22929"/>
</linearGradient>
</defs>
</svg>
