<svg width="1298" height="435" viewBox="0 0 1298 435" fill="none" xmlns="http://www.w3.org/2000/svg">
<g filter="url(#filter0_d_16_123)">
<rect x="4" width="317" height="138" rx="16" fill="#74D97D"/>
<rect x="6.5" y="2.5" width="312" height="133" rx="13.5" stroke="#4BA053" stroke-width="5"/>
</g>
<path d="M87.792 80V57.6H95.792C98.1173 57.6 99.8773 58.1333 101.072 59.2C102.267 60.2667 102.864 61.6427 102.864 63.328C102.864 64.6293 102.523 65.6853 101.84 66.496C101.157 67.3067 100.368 67.8933 99.472 68.256V68.48C100.539 68.864 101.456 69.4933 102.224 70.368C102.992 71.2213 103.376 72.352 103.376 73.76C103.376 74.912 103.088 75.968 102.512 76.928C101.957 77.8667 101.136 78.6133 100.048 79.168C98.96 79.7227 97.6267 80 96.048 80H87.792ZM91.184 66.944H95.376C96.6773 66.944 97.6693 66.688 98.352 66.176C99.0347 65.6427 99.376 64.8427 99.376 63.776C99.376 61.664 98.0213 60.608 95.312 60.608H91.184V66.944ZM91.184 76.864H95.6C96.9867 76.864 98.0533 76.5653 98.8 75.968C99.5467 75.3707 99.92 74.496 99.92 73.344C99.92 72.2133 99.5253 71.3493 98.736 70.752C97.9467 70.1333 96.88 69.824 95.536 69.824H91.184V76.864ZM113.348 80.384C112.089 80.384 111.033 80.1707 110.18 79.744C109.326 79.296 108.686 78.7093 108.26 77.984C107.833 77.2373 107.62 76.4267 107.62 75.552C107.62 73.9947 108.185 72.7787 109.316 71.904C110.468 71.0293 112.089 70.592 114.18 70.592H118.276V70.24C118.276 67.8507 117.166 66.656 114.948 66.656C114.03 66.656 113.252 66.8587 112.612 67.264C111.993 67.648 111.577 68.2773 111.364 69.152H107.972C108.142 67.488 108.857 66.176 110.116 65.216C111.396 64.2347 113.006 63.744 114.948 63.744C117.294 63.744 119.001 64.32 120.068 65.472C121.134 66.624 121.668 68.2133 121.668 70.24V80H118.788L118.5 77.664H118.276C117.806 78.4107 117.22 79.0507 116.516 79.584C115.812 80.1173 114.756 80.384 113.348 80.384ZM113.988 77.536C115.374 77.536 116.409 77.12 117.092 76.288C117.796 75.4347 118.18 74.3573 118.244 73.056H114.532C113.316 73.056 112.452 73.2587 111.94 73.664C111.449 74.048 111.204 74.592 111.204 75.296C111.204 76 111.449 76.5547 111.94 76.96C112.452 77.344 113.134 77.536 113.988 77.536ZM134.103 80.384C132.012 80.384 130.348 79.8933 129.111 78.912C127.874 77.9307 127.17 76.6293 126.999 75.008H130.487C130.615 75.7547 130.988 76.3627 131.607 76.832C132.247 77.3013 133.09 77.536 134.135 77.536C135.138 77.536 135.906 77.3333 136.439 76.928C136.994 76.5013 137.271 76.0107 137.271 75.456C137.271 74.6453 136.94 74.0907 136.279 73.792C135.639 73.4933 134.69 73.2693 133.431 73.12C132.343 72.992 131.351 72.7467 130.455 72.384C129.58 72 128.887 71.488 128.375 70.848C127.863 70.1867 127.607 69.3653 127.607 68.384C127.607 66.9973 128.151 65.8773 129.239 65.024C130.327 64.1707 131.842 63.744 133.783 63.744C135.724 63.744 137.228 64.1813 138.295 65.056C139.362 65.9307 139.98 67.1253 140.151 68.64H136.887C136.802 68 136.471 67.4987 135.895 67.136C135.319 66.752 134.604 66.56 133.751 66.56C132.876 66.56 132.183 66.7307 131.671 67.072C131.159 67.392 130.903 67.8187 130.903 68.352C130.903 69.504 132.14 70.208 134.615 70.464C135.788 70.592 136.834 70.816 137.751 71.136C138.668 71.4347 139.394 71.9147 139.927 72.576C140.46 73.216 140.727 74.1227 140.727 75.296C140.748 76.256 140.471 77.12 139.895 77.888C139.34 78.656 138.562 79.264 137.559 79.712C136.578 80.16 135.426 80.384 134.103 80.384ZM153.355 80.384C151.819 80.384 150.464 80.0427 149.291 79.36C148.117 78.656 147.2 77.6853 146.539 76.448C145.877 75.2107 145.547 73.7707 145.547 72.128C145.547 70.464 145.867 69.0027 146.507 67.744C147.168 66.4853 148.085 65.504 149.259 64.8C150.453 64.096 151.829 63.744 153.387 63.744C154.923 63.744 156.245 64.096 157.355 64.8C158.464 65.4827 159.317 66.4 159.915 67.552C160.533 68.704 160.843 69.9733 160.843 71.36C160.843 71.5733 160.843 71.808 160.843 72.064C160.843 72.2987 160.832 72.5653 160.811 72.864H148.875C148.981 74.336 149.461 75.456 150.315 76.224C151.168 76.9707 152.171 77.344 153.323 77.344C154.325 77.344 155.115 77.1413 155.691 76.736C156.288 76.3093 156.725 75.7333 157.003 75.008H160.427C160.043 76.5227 159.243 77.8027 158.027 78.848C156.811 79.872 155.253 80.384 153.355 80.384ZM153.355 66.688C152.309 66.688 151.381 67.008 150.571 67.648C149.76 68.2667 149.237 69.1413 149.003 70.272H157.451C157.365 69.2053 156.949 68.3413 156.203 67.68C155.456 67.0187 154.507 66.688 153.355 66.688ZM164.926 80V77.056H170.238V60.96C170.238 60.256 169.897 59.904 169.214 59.904H165.374V56.96H169.822C171.059 56.96 171.998 57.2907 172.638 57.952C173.299 58.592 173.63 59.5307 173.63 60.768V77.056H178.974V80H164.926ZM191.218 61.696C190.471 61.696 189.842 61.4613 189.33 60.992C188.839 60.5013 188.594 59.904 188.594 59.2C188.594 58.496 188.839 57.9093 189.33 57.44C189.842 56.9707 190.471 56.736 191.218 56.736C191.986 56.736 192.615 56.9707 193.106 57.44C193.618 57.9093 193.874 58.496 193.874 59.2C193.874 59.904 193.618 60.5013 193.106 60.992C192.615 61.4613 191.986 61.696 191.218 61.696ZM184.85 80V77.056H189.842V68.128C189.842 67.424 189.5 67.072 188.818 67.072H185.298V64.128H189.426C190.748 64.128 191.708 64.4373 192.306 65.056C192.924 65.6533 193.234 66.6133 193.234 67.936V77.056H198.226V80H184.85ZM203.621 80V64.128H206.565L206.853 66.496H207.013C207.44 65.728 208.101 65.0773 208.997 64.544C209.893 64.0107 210.928 63.744 212.101 63.744C214.042 63.744 215.504 64.3307 216.485 65.504C217.466 66.6773 217.957 68.4053 217.957 70.688V80H214.565V71.104C214.565 69.7813 214.288 68.7573 213.733 68.032C213.178 67.3067 212.304 66.944 211.109 66.944C209.936 66.944 208.954 67.3387 208.165 68.128C207.397 68.9173 207.013 70.0587 207.013 71.552V80H203.621ZM230.105 80.384C228.569 80.384 227.214 80.0427 226.041 79.36C224.867 78.656 223.95 77.6853 223.289 76.448C222.627 75.2107 222.297 73.7707 222.297 72.128C222.297 70.464 222.617 69.0027 223.257 67.744C223.918 66.4853 224.835 65.504 226.009 64.8C227.203 64.096 228.579 63.744 230.137 63.744C231.673 63.744 232.995 64.096 234.105 64.8C235.214 65.4827 236.067 66.4 236.665 67.552C237.283 68.704 237.593 69.9733 237.593 71.36C237.593 71.5733 237.593 71.808 237.593 72.064C237.593 72.2987 237.582 72.5653 237.561 72.864H225.625C225.731 74.336 226.211 75.456 227.065 76.224C227.918 76.9707 228.921 77.344 230.073 77.344C231.075 77.344 231.865 77.1413 232.441 76.736C233.038 76.3093 233.475 75.7333 233.753 75.008H237.177C236.793 76.5227 235.993 77.8027 234.777 78.848C233.561 79.872 232.003 80.384 230.105 80.384ZM230.105 66.688C229.059 66.688 228.131 67.008 227.321 67.648C226.51 68.2667 225.987 69.1413 225.753 70.272H234.201C234.115 69.2053 233.699 68.3413 232.953 67.68C232.206 67.0187 231.257 66.688 230.105 66.688Z" fill="black"/>
<g filter="url(#filter1_d_16_123)">
<rect x="364" y="4" width="270" height="130" rx="8" fill="#FAFAFA"/>
<rect x="364.5" y="4.5" width="269" height="129" rx="7.5" stroke="#E3E3E3"/>
</g>
<path d="M383.363 19.2929C382.972 18.9024 382.339 18.9024 381.949 19.2929L375.585 25.6569C375.194 26.0474 375.194 26.6805 375.585 27.0711C375.975 27.4616 376.608 27.4616 376.999 27.0711L382.656 21.4142L388.313 27.0711C388.703 27.4616 389.336 27.4616 389.727 27.0711C390.117 26.6805 390.117 26.0474 389.727 25.6569L383.363 19.2929ZM382.656 20L381.656 20L381.656 118L382.656 118L383.656 118L383.656 20L382.656 20Z" fill="black"/>
<path d="M617.523 118.709C617.915 118.319 617.916 117.686 617.527 117.295L611.18 110.914C610.791 110.522 610.158 110.52 609.766 110.91C609.374 111.299 609.373 111.932 609.762 112.324L615.404 117.996L609.732 123.638C609.34 124.027 609.338 124.66 609.728 125.052C610.117 125.443 610.75 125.445 611.142 125.056L617.523 118.709ZM616.818 118L616.821 117L382.002 116.364L382 117.364L381.997 118.364L616.815 119L616.818 118Z" fill="black"/>
<path d="M384.011 60.3919L412.155 75L438.402 52.4527L466.23 63.5676L483.939 38.1622H531.057L575.961 28H612.011" stroke="#74D97D" stroke-width="2"/>
<g filter="url(#filter2_d_16_123)">
<rect x="5" y="289" width="317" height="138" rx="16" fill="#D97474"/>
<rect x="7.5" y="291.5" width="312" height="133" rx="13.5" stroke="#A04B4B" stroke-width="5"/>
</g>
<path d="M60.688 369V346.6H75.056V349.768H64.08V356.616H73.296V359.592H64.08V369H60.688ZM85.3475 369.384C84.0888 369.384 83.0328 369.171 82.1795 368.744C81.3262 368.296 80.6862 367.709 80.2595 366.984C79.8328 366.237 79.6195 365.427 79.6195 364.552C79.6195 362.995 80.1848 361.779 81.3155 360.904C82.4675 360.029 84.0888 359.592 86.1795 359.592H90.2755V359.24C90.2755 356.851 89.1662 355.656 86.9475 355.656C86.0302 355.656 85.2515 355.859 84.6115 356.264C83.9928 356.648 83.5768 357.277 83.3635 358.152H79.9715C80.1422 356.488 80.8568 355.176 82.1155 354.216C83.3955 353.235 85.0062 352.744 86.9475 352.744C89.2942 352.744 91.0008 353.32 92.0675 354.472C93.1342 355.624 93.6675 357.213 93.6675 359.24V369H90.7875L90.4995 366.664H90.2755C89.8062 367.411 89.2195 368.051 88.5155 368.584C87.8115 369.117 86.7555 369.384 85.3475 369.384ZM85.9875 366.536C87.3742 366.536 88.4088 366.12 89.0915 365.288C89.7955 364.435 90.1795 363.357 90.2435 362.056H86.5315C85.3155 362.056 84.4515 362.259 83.9395 362.664C83.4488 363.048 83.2035 363.592 83.2035 364.296C83.2035 365 83.4488 365.555 83.9395 365.96C84.4515 366.344 85.1342 366.536 85.9875 366.536ZM104.567 369.384C102.647 369.384 101.186 368.797 100.183 367.624C99.2017 366.429 98.711 364.701 98.711 362.44V353.128H102.103V362.024C102.103 363.325 102.38 364.349 102.935 365.096C103.511 365.821 104.386 366.184 105.559 366.184C106.732 366.184 107.714 365.789 108.503 365C109.292 364.211 109.687 363.069 109.687 361.576V353.128H113.079V369H110.135L109.847 366.632H109.687C109.26 367.4 108.599 368.051 107.703 368.584C106.807 369.117 105.762 369.384 104.567 369.384ZM117.739 369V366.056H123.051V349.96C123.051 349.256 122.709 348.904 122.027 348.904H118.187V345.96H122.635C123.872 345.96 124.811 346.291 125.451 346.952C126.112 347.592 126.443 348.531 126.443 349.768V366.056H131.787V369H117.739ZM146.078 369C144.521 369 143.283 368.627 142.366 367.88C141.449 367.112 140.99 365.757 140.99 363.816V356.008H136.99V353.128H139.358C140.446 353.128 141.086 352.595 141.278 351.528L141.758 348.968H144.382V353.128H150.654V356.008H144.382V363.752C144.382 364.584 144.563 365.171 144.926 365.512C145.31 365.832 145.961 365.992 146.878 365.992H150.59V369H146.078ZM163.73 369.384C162.194 369.384 160.839 369.043 159.666 368.36C158.492 367.656 157.575 366.685 156.914 365.448C156.252 364.211 155.922 362.771 155.922 361.128C155.922 359.464 156.242 358.003 156.882 356.744C157.543 355.485 158.46 354.504 159.634 353.8C160.828 353.096 162.204 352.744 163.762 352.744C165.298 352.744 166.62 353.096 167.73 353.8C168.839 354.483 169.692 355.4 170.29 356.552C170.908 357.704 171.218 358.973 171.218 360.36C171.218 360.573 171.218 360.808 171.218 361.064C171.218 361.299 171.207 361.565 171.186 361.864H159.25C159.356 363.336 159.836 364.456 160.69 365.224C161.543 365.971 162.546 366.344 163.698 366.344C164.7 366.344 165.49 366.141 166.066 365.736C166.663 365.309 167.1 364.733 167.378 364.008H170.802C170.418 365.523 169.618 366.803 168.402 367.848C167.186 368.872 165.628 369.384 163.73 369.384ZM163.73 355.688C162.684 355.688 161.756 356.008 160.946 356.648C160.135 357.267 159.612 358.141 159.378 359.272H167.826C167.74 358.205 167.324 357.341 166.578 356.68C165.831 356.019 164.882 355.688 163.73 355.688ZM181.861 369.384C180.538 369.384 179.354 369.075 178.309 368.456C177.264 367.816 176.432 366.877 175.813 365.64C175.216 364.403 174.917 362.877 174.917 361.064C174.917 359.251 175.226 357.725 175.845 356.488C176.464 355.251 177.296 354.323 178.341 353.704C179.408 353.064 180.592 352.744 181.893 352.744C183.109 352.744 184.112 352.979 184.901 353.448C185.69 353.896 186.277 354.472 186.661 355.176V345.96H190.053V369H187.141L186.853 366.664H186.661C186.234 367.496 185.626 368.157 184.837 368.648C184.069 369.139 183.077 369.384 181.861 369.384ZM182.565 366.152C183.781 366.152 184.784 365.725 185.573 364.872C186.384 364.019 186.789 362.749 186.789 361.064C186.789 359.357 186.384 358.088 185.573 357.256C184.784 356.403 183.781 355.976 182.565 355.976C181.349 355.976 180.336 356.403 179.525 357.256C178.736 358.109 178.341 359.389 178.341 361.096C178.341 362.781 178.736 364.051 179.525 364.904C180.336 365.736 181.349 366.152 182.565 366.152ZM213.9 369V346.6H221.228C222.977 346.6 224.417 346.899 225.548 347.496C226.7 348.093 227.553 348.904 228.108 349.928C228.684 350.931 228.972 352.072 228.972 353.352C228.972 354.803 228.599 356.093 227.852 357.224C227.127 358.333 226.007 359.144 224.492 359.656L229.196 369H225.26L220.972 360.136H217.292V369H213.9ZM217.292 357.064H221.036C222.572 357.064 223.692 356.723 224.396 356.04C225.121 355.357 225.484 354.461 225.484 353.352C225.484 352.221 225.132 351.325 224.428 350.664C223.724 349.981 222.583 349.64 221.004 349.64H217.292V357.064ZM238.88 369.384C236.96 369.384 235.498 368.797 234.496 367.624C233.514 366.429 233.024 364.701 233.024 362.44V353.128H236.416V362.024C236.416 363.325 236.693 364.349 237.248 365.096C237.824 365.821 238.698 366.184 239.872 366.184C241.045 366.184 242.026 365.789 242.816 365C243.605 364.211 244 363.069 244 361.576V353.128H247.392V369H244.448L244.16 366.632H244C243.573 367.4 242.912 368.051 242.016 368.584C241.12 369.117 240.074 369.384 238.88 369.384ZM252.371 369V353.128H255.315L255.603 355.496H255.763C256.19 354.728 256.851 354.077 257.747 353.544C258.643 353.011 259.678 352.744 260.851 352.744C262.792 352.744 264.254 353.331 265.235 354.504C266.216 355.677 266.707 357.405 266.707 359.688V369H263.315V360.104C263.315 358.781 263.038 357.757 262.483 357.032C261.928 356.307 261.054 355.944 259.859 355.944C258.686 355.944 257.704 356.339 256.915 357.128C256.147 357.917 255.763 359.059 255.763 360.552V369H252.371Z" fill="black"/>
<g filter="url(#filter3_d_16_123)">
<rect x="364" y="293" width="270" height="130" rx="8" fill="#FAFAFA"/>
<rect x="364.5" y="293.5" width="269" height="129" rx="7.5" stroke="#E3E3E3"/>
</g>
<path d="M383.363 308.293C382.972 307.902 382.339 307.902 381.949 308.293L375.585 314.657C375.194 315.047 375.194 315.681 375.585 316.071C375.975 316.462 376.608 316.462 376.999 316.071L382.656 310.414L388.313 316.071C388.703 316.462 389.336 316.462 389.727 316.071C390.117 315.681 390.117 315.047 389.727 314.657L383.363 308.293ZM382.656 309L381.656 309L381.656 407L382.656 407L383.656 407L383.656 309L382.656 309Z" fill="black"/>
<path d="M617.514 407.709C617.905 407.319 617.907 406.686 617.518 406.295L611.171 399.914C610.781 399.522 610.148 399.52 609.757 399.91C609.365 400.299 609.363 400.932 609.753 401.324L615.394 406.996L609.722 412.638C609.331 413.027 609.329 413.66 609.718 414.052C610.108 414.443 610.741 414.445 611.133 414.056L617.514 407.709ZM616.809 407L616.811 406L381.993 405.364L381.99 406.364L381.988 407.364L616.806 408L616.809 407Z" fill="black"/>
<path d="M384.011 349.392L412.155 364L438.5 394.5L478 386.5L498 349.392L529 358L563.5 331.5L612.5 325.5" stroke="#D97474" stroke-width="2"/>
<g filter="url(#filter4_d_16_123)">
<rect x="883" y="153" width="270" height="130" rx="8" fill="#FAFAFA"/>
<rect x="883.5" y="153.5" width="269" height="129" rx="7.5" stroke="#E3E3E3"/>
</g>
<path d="M902.363 168.293C901.972 167.902 901.339 167.902 900.949 168.293L894.585 174.657C894.194 175.047 894.194 175.681 894.585 176.071C894.975 176.462 895.608 176.462 895.999 176.071L901.656 170.414L907.313 176.071C907.703 176.462 908.336 176.462 908.727 176.071C909.117 175.681 909.117 175.047 908.727 174.657L902.363 168.293ZM901.656 169L900.656 169L900.656 267L901.656 267L902.656 267L902.656 169L901.656 169Z" fill="black"/>
<path d="M1136.52 267.709C1136.91 267.319 1136.91 266.686 1136.52 266.295L1130.17 259.914C1129.79 259.522 1129.15 259.52 1128.76 259.91C1128.37 260.299 1128.37 260.932 1128.76 261.324L1134.4 266.996L1128.73 272.638C1128.33 273.027 1128.33 273.66 1128.72 274.052C1129.11 274.443 1129.74 274.445 1130.14 274.056L1136.52 267.709ZM1135.81 267L1135.82 266L900.997 265.364L900.994 266.364L900.992 267.364L1135.81 268L1135.81 267Z" fill="black"/>
<path d="M903.011 209.392L931.155 224L957.402 201.453L985.23 212.568L1002.94 187.162H1050.06L1094.96 177H1131.01" stroke="#74D97D" stroke-width="2"/>
<path d="M903 209.892L931.144 224.5L957.489 255L996.989 247L1016.99 209.892L1047.99 218.5L1082.49 192L1131.49 186" stroke="#D97474" stroke-width="2"/>
<path d="M932.5 224L957.5 203L985.5 214L1003.5 188.5H1050L1095.5 178.5H1131V185L1081.5 191.5L1047.5 217.5L1016.5 208.5L996 246L958 254L932.5 224Z" fill="#FFDCDC"/>
<line x1="411.5" y1="20" x2="411.5" y2="395" stroke="#222CAB" stroke-dasharray="2 2"/>
<line x1="931.5" y1="177" x2="931.5" y2="255" stroke="#222CAB" stroke-dasharray="2 2"/>
<rect x="353" y="204" width="115" height="20" rx="3" fill="#DCECFF"/>
<path d="M357.828 220.64V219.524H358.8C359.08 219.524 359.28 219.464 359.4 219.344C359.528 219.232 359.592 219.04 359.592 218.768V213.128H358.08V212.048H359.592V211.22C359.592 210.556 359.756 210.08 360.084 209.792C360.412 209.504 360.88 209.36 361.488 209.36H362.94V210.476H361.644C361.364 210.476 361.164 210.532 361.044 210.644C360.924 210.756 360.864 210.952 360.864 211.232V212.048H362.94V213.128H360.864V218.78C360.864 219.444 360.7 219.92 360.372 220.208C360.044 220.496 359.572 220.64 358.956 220.64H357.828ZM367.255 218.144C366.783 218.144 366.387 218.064 366.067 217.904C365.747 217.736 365.507 217.516 365.347 217.244C365.187 216.964 365.107 216.66 365.107 216.332C365.107 215.748 365.319 215.292 365.743 214.964C366.175 214.636 366.783 214.472 367.567 214.472H369.103V214.34C369.103 213.444 368.687 212.996 367.855 212.996C367.511 212.996 367.219 213.072 366.979 213.224C366.747 213.368 366.591 213.604 366.511 213.932H365.239C365.303 213.308 365.571 212.816 366.043 212.456C366.523 212.088 367.127 211.904 367.855 211.904C368.735 211.904 369.375 212.12 369.775 212.552C370.175 212.984 370.375 213.58 370.375 214.34V218H369.295L369.187 217.124H369.103C368.927 217.404 368.707 217.644 368.443 217.844C368.179 218.044 367.783 218.144 367.255 218.144ZM367.495 217.076C368.015 217.076 368.403 216.92 368.659 216.608C368.923 216.288 369.067 215.884 369.091 215.396H367.699C367.243 215.396 366.919 215.472 366.727 215.624C366.543 215.768 366.451 215.972 366.451 216.236C366.451 216.5 366.543 216.708 366.727 216.86C366.919 217.004 367.175 217.076 367.495 217.076ZM374.463 218.144C373.743 218.144 373.195 217.924 372.819 217.484C372.451 217.036 372.267 216.388 372.267 215.54V212.048H373.539V215.384C373.539 215.872 373.643 216.256 373.851 216.536C374.067 216.808 374.395 216.944 374.835 216.944C375.275 216.944 375.643 216.796 375.939 216.5C376.235 216.204 376.383 215.776 376.383 215.216V212.048H377.655V218H376.551L376.443 217.112H376.383C376.223 217.4 375.975 217.644 375.639 217.844C375.303 218.044 374.911 218.144 374.463 218.144ZM379.402 218V216.896H381.394V210.86C381.394 210.596 381.266 210.464 381.01 210.464H379.57V209.36H381.238C381.702 209.36 382.054 209.484 382.294 209.732C382.542 209.972 382.666 210.324 382.666 210.788V216.896H384.67V218H379.402ZM390.029 218C389.445 218 388.981 217.86 388.637 217.58C388.293 217.292 388.121 216.784 388.121 216.056V213.128H386.621V212.048H387.509C387.917 212.048 388.157 211.848 388.229 211.448L388.409 210.488H389.393V212.048H391.745V213.128H389.393V216.032C389.393 216.344 389.461 216.564 389.597 216.692C389.741 216.812 389.985 216.872 390.329 216.872H391.721V218H390.029ZM403.652 211.136C403.372 211.136 403.136 211.048 402.944 210.872C402.76 210.688 402.668 210.464 402.668 210.2C402.668 209.936 402.76 209.716 402.944 209.54C403.136 209.364 403.372 209.276 403.652 209.276C403.94 209.276 404.176 209.364 404.36 209.54C404.552 209.716 404.648 209.936 404.648 210.2C404.648 210.464 404.552 210.688 404.36 210.872C404.176 211.048 403.94 211.136 403.652 211.136ZM401.264 218V216.896H403.136V213.548C403.136 213.284 403.008 213.152 402.752 213.152H401.432V212.048H402.98C403.476 212.048 403.836 212.164 404.06 212.396C404.292 212.62 404.408 212.98 404.408 213.476V216.896H406.28V218H401.264ZM408.303 218V212.048H409.407L409.515 212.936H409.575C409.735 212.648 409.983 212.404 410.319 212.204C410.655 212.004 411.043 211.904 411.483 211.904C412.211 211.904 412.759 212.124 413.127 212.564C413.495 213.004 413.679 213.652 413.679 214.508V218H412.407V214.664C412.407 214.168 412.303 213.784 412.095 213.512C411.887 213.24 411.559 213.104 411.111 213.104C410.671 213.104 410.303 213.252 410.007 213.548C409.719 213.844 409.575 214.272 409.575 214.832V218H408.303ZM418.499 211.136C418.219 211.136 417.983 211.048 417.791 210.872C417.607 210.688 417.515 210.464 417.515 210.2C417.515 209.936 417.607 209.716 417.791 209.54C417.983 209.364 418.219 209.276 418.499 209.276C418.787 209.276 419.023 209.364 419.207 209.54C419.399 209.716 419.495 209.936 419.495 210.2C419.495 210.464 419.399 210.688 419.207 210.872C419.023 211.048 418.787 211.136 418.499 211.136ZM415.235 220.64V219.536H417.587C417.851 219.536 417.983 219.404 417.983 219.14V213.548C417.983 213.284 417.851 213.152 417.587 213.152H416.123V212.048H417.827C418.323 212.048 418.683 212.164 418.907 212.396C419.139 212.62 419.255 212.98 419.255 213.476V219.212C419.255 219.708 419.139 220.068 418.907 220.292C418.683 220.524 418.323 220.64 417.827 220.64H415.235ZM425.43 218.144C424.854 218.144 424.346 218.016 423.906 217.76C423.466 217.496 423.122 217.132 422.874 216.668C422.626 216.204 422.502 215.664 422.502 215.048C422.502 214.424 422.622 213.876 422.862 213.404C423.11 212.932 423.454 212.564 423.894 212.3C424.342 212.036 424.858 211.904 425.442 211.904C426.018 211.904 426.514 212.036 426.93 212.3C427.346 212.556 427.666 212.9 427.89 213.332C428.122 213.764 428.238 214.24 428.238 214.76C428.238 214.84 428.238 214.928 428.238 215.024C428.238 215.112 428.234 215.212 428.226 215.324H423.75C423.79 215.876 423.97 216.296 424.29 216.584C424.61 216.864 424.986 217.004 425.418 217.004C425.794 217.004 426.09 216.928 426.306 216.776C426.53 216.616 426.694 216.4 426.798 216.128H428.082C427.938 216.696 427.638 217.176 427.182 217.568C426.726 217.952 426.142 218.144 425.43 218.144ZM425.43 213.008C425.038 213.008 424.69 213.128 424.386 213.368C424.082 213.6 423.886 213.928 423.798 214.352H426.966C426.934 213.952 426.778 213.628 426.498 213.38C426.218 213.132 425.862 213.008 425.43 213.008ZM432.637 218.144C432.085 218.144 431.589 218.016 431.149 217.76C430.717 217.504 430.377 217.144 430.129 216.68C429.881 216.208 429.757 215.656 429.757 215.024C429.757 214.392 429.881 213.844 430.129 213.38C430.385 212.916 430.729 212.556 431.161 212.3C431.593 212.036 432.085 211.904 432.637 211.904C433.397 211.904 434.009 212.096 434.473 212.48C434.945 212.856 435.245 213.376 435.373 214.04H434.041C433.961 213.752 433.797 213.524 433.549 213.356C433.309 213.188 433.001 213.104 432.625 213.104C432.353 213.104 432.093 213.176 431.845 213.32C431.605 213.464 431.409 213.68 431.257 213.968C431.113 214.248 431.041 214.6 431.041 215.024C431.041 215.44 431.113 215.792 431.257 216.08C431.409 216.368 431.605 216.588 431.845 216.74C432.093 216.884 432.353 216.956 432.625 216.956C433.009 216.956 433.317 216.872 433.549 216.704C433.781 216.536 433.945 216.304 434.041 216.008H435.373C435.213 216.664 434.901 217.184 434.437 217.568C433.973 217.952 433.373 218.144 432.637 218.144ZM440.396 218C439.812 218 439.348 217.86 439.004 217.58C438.66 217.292 438.488 216.784 438.488 216.056V213.128H436.988V212.048H437.876C438.284 212.048 438.524 211.848 438.596 211.448L438.776 210.488H439.76V212.048H442.112V213.128H439.76V216.032C439.76 216.344 439.828 216.564 439.964 216.692C440.108 216.812 440.352 216.872 440.696 216.872H442.088V218H440.396ZM446.824 211.136C446.544 211.136 446.308 211.048 446.116 210.872C445.932 210.688 445.84 210.464 445.84 210.2C445.84 209.936 445.932 209.716 446.116 209.54C446.308 209.364 446.544 209.276 446.824 209.276C447.112 209.276 447.348 209.364 447.532 209.54C447.724 209.716 447.82 209.936 447.82 210.2C447.82 210.464 447.724 210.688 447.532 210.872C447.348 211.048 447.112 211.136 446.824 211.136ZM444.436 218V216.896H446.308V213.548C446.308 213.284 446.18 213.152 445.924 213.152H444.604V212.048H446.152C446.648 212.048 447.008 212.164 447.232 212.396C447.464 212.62 447.58 212.98 447.58 213.476V216.896H449.452V218H444.436ZM454.139 218.144C453.571 218.144 453.063 218.016 452.615 217.76C452.167 217.504 451.815 217.144 451.559 216.68C451.303 216.208 451.175 215.656 451.175 215.024C451.175 214.392 451.303 213.844 451.559 213.38C451.815 212.908 452.167 212.544 452.615 212.288C453.063 212.032 453.575 211.904 454.151 211.904C454.727 211.904 455.235 212.032 455.675 212.288C456.123 212.544 456.471 212.908 456.719 213.38C456.975 213.844 457.103 214.392 457.103 215.024C457.103 215.656 456.975 216.208 456.719 216.68C456.463 217.144 456.111 217.504 455.663 217.76C455.223 218.016 454.715 218.144 454.139 218.144ZM454.139 216.932C454.443 216.932 454.723 216.864 454.979 216.728C455.235 216.592 455.439 216.384 455.591 216.104C455.751 215.816 455.831 215.456 455.831 215.024C455.831 214.584 455.751 214.224 455.591 213.944C455.439 213.664 455.235 213.456 454.979 213.32C454.731 213.184 454.455 213.116 454.151 213.116C453.847 213.116 453.567 213.184 453.311 213.32C453.055 213.456 452.847 213.664 452.687 213.944C452.535 214.224 452.459 214.584 452.459 215.024C452.459 215.68 452.623 216.164 452.951 216.476C453.287 216.78 453.683 216.932 454.139 216.932ZM458.67 218V212.048H459.774L459.882 212.936H459.942C460.102 212.648 460.35 212.404 460.686 212.204C461.022 212.004 461.41 211.904 461.85 211.904C462.578 211.904 463.126 212.124 463.494 212.564C463.862 213.004 464.046 213.652 464.046 214.508V218H462.774V214.664C462.774 214.168 462.67 213.784 462.462 213.512C462.254 213.24 461.926 213.104 461.478 213.104C461.038 213.104 460.67 213.252 460.374 213.548C460.086 213.844 459.942 214.272 459.942 214.832V218H458.67Z" fill="#222CAB"/>
<line x1="726.5" y1="69" x2="726.5" y2="358" stroke="#BB9041"/>
<path d="M871 215L866 212.113V217.887L871 215ZM866.5 215V214.5L726 214.5V215V215.5L866.5 215.5V215Z" fill="#BB9041"/>
<path d="M726 69L646 69" stroke="#BB9041"/>
<path d="M726 360H646" stroke="#BB9041"/>
<rect x="657" y="204" width="138" height="20" rx="3" fill="#FFEED0"/>
<path d="M664.684 218.144C664.132 218.144 663.636 218.016 663.196 217.76C662.764 217.504 662.424 217.144 662.176 216.68C661.928 216.208 661.804 215.656 661.804 215.024C661.804 214.392 661.928 213.844 662.176 213.38C662.432 212.916 662.776 212.556 663.208 212.3C663.64 212.036 664.132 211.904 664.684 211.904C665.444 211.904 666.056 212.096 666.52 212.48C666.992 212.856 667.292 213.376 667.42 214.04H666.088C666.008 213.752 665.844 213.524 665.596 213.356C665.356 213.188 665.048 213.104 664.672 213.104C664.4 213.104 664.14 213.176 663.892 213.32C663.652 213.464 663.456 213.68 663.304 213.968C663.16 214.248 663.088 214.6 663.088 215.024C663.088 215.44 663.16 215.792 663.304 216.08C663.456 216.368 663.652 216.588 663.892 216.74C664.14 216.884 664.4 216.956 664.672 216.956C665.056 216.956 665.364 216.872 665.596 216.704C665.828 216.536 665.992 216.304 666.088 216.008H667.42C667.26 216.664 666.948 217.184 666.484 217.568C666.02 217.952 665.42 218.144 664.684 218.144ZM671.795 218.144C671.227 218.144 670.719 218.016 670.271 217.76C669.823 217.504 669.471 217.144 669.215 216.68C668.959 216.208 668.831 215.656 668.831 215.024C668.831 214.392 668.959 213.844 669.215 213.38C669.471 212.908 669.823 212.544 670.271 212.288C670.719 212.032 671.231 211.904 671.807 211.904C672.383 211.904 672.891 212.032 673.331 212.288C673.779 212.544 674.127 212.908 674.375 213.38C674.631 213.844 674.759 214.392 674.759 215.024C674.759 215.656 674.631 216.208 674.375 216.68C674.119 217.144 673.767 217.504 673.319 217.76C672.879 218.016 672.371 218.144 671.795 218.144ZM671.795 216.932C672.099 216.932 672.379 216.864 672.635 216.728C672.891 216.592 673.095 216.384 673.247 216.104C673.407 215.816 673.487 215.456 673.487 215.024C673.487 214.584 673.407 214.224 673.247 213.944C673.095 213.664 672.891 213.456 672.635 213.32C672.387 213.184 672.111 213.116 671.807 213.116C671.503 213.116 671.223 213.184 670.967 213.32C670.711 213.456 670.503 213.664 670.343 213.944C670.191 214.224 670.115 214.584 670.115 215.024C670.115 215.68 670.279 216.164 670.607 216.476C670.943 216.78 671.339 216.932 671.795 216.932ZM675.691 218V212.048H676.747L676.855 212.744H676.915C677.019 212.496 677.179 212.296 677.395 212.144C677.611 211.984 677.867 211.904 678.163 211.904C678.451 211.904 678.703 211.976 678.919 212.12C679.135 212.264 679.295 212.472 679.399 212.744H679.447C679.551 212.504 679.715 212.304 679.939 212.144C680.163 211.984 680.439 211.904 680.767 211.904C681.207 211.904 681.539 212.048 681.763 212.336C681.995 212.624 682.111 213.028 682.111 213.548V218H680.887V213.8C680.887 213.56 680.835 213.372 680.731 213.236C680.635 213.092 680.479 213.02 680.263 213.02C680.047 213.02 679.867 213.104 679.723 213.272C679.587 213.44 679.519 213.676 679.519 213.98V218H678.283V213.8C678.283 213.56 678.235 213.372 678.139 213.236C678.043 213.092 677.887 213.02 677.671 213.02C677.455 213.02 677.275 213.104 677.131 213.272C676.987 213.44 676.915 213.676 676.915 213.98V218H675.691ZM683.414 220.64V212.048H684.518L684.614 212.96H684.686C684.846 212.664 685.086 212.416 685.406 212.216C685.734 212.008 686.122 211.904 686.57 211.904C687.034 211.904 687.458 212.024 687.842 212.264C688.226 212.496 688.53 212.844 688.754 213.308C688.986 213.764 689.102 214.336 689.102 215.024C689.102 215.704 688.982 216.276 688.742 216.74C688.51 217.204 688.194 217.556 687.794 217.796C687.394 218.028 686.946 218.144 686.45 218.144C686.01 218.144 685.642 218.056 685.346 217.88C685.05 217.704 684.83 217.504 684.686 217.28V220.64H683.414ZM686.234 216.932C686.682 216.932 687.054 216.772 687.35 216.452C687.654 216.132 687.806 215.652 687.806 215.012C687.806 214.372 687.654 213.896 687.35 213.584C687.054 213.272 686.682 213.116 686.234 213.116C685.778 213.116 685.398 213.276 685.094 213.596C684.798 213.908 684.65 214.384 684.65 215.024C684.65 215.656 684.798 216.132 685.094 216.452C685.398 216.772 685.778 216.932 686.234 216.932ZM692.841 218.144C692.369 218.144 691.973 218.064 691.653 217.904C691.333 217.736 691.093 217.516 690.933 217.244C690.773 216.964 690.693 216.66 690.693 216.332C690.693 215.748 690.905 215.292 691.329 214.964C691.761 214.636 692.369 214.472 693.153 214.472H694.689V214.34C694.689 213.444 694.273 212.996 693.441 212.996C693.097 212.996 692.805 213.072 692.565 213.224C692.333 213.368 692.177 213.604 692.097 213.932H690.825C690.889 213.308 691.157 212.816 691.629 212.456C692.109 212.088 692.713 211.904 693.441 211.904C694.321 211.904 694.961 212.12 695.361 212.552C695.761 212.984 695.961 213.58 695.961 214.34V218H694.881L694.773 217.124H694.689C694.513 217.404 694.293 217.644 694.029 217.844C693.765 218.044 693.369 218.144 692.841 218.144ZM693.081 217.076C693.601 217.076 693.989 216.92 694.245 216.608C694.509 216.288 694.653 215.884 694.677 215.396H693.285C692.829 215.396 692.505 215.472 692.313 215.624C692.129 215.768 692.037 215.972 692.037 216.236C692.037 216.5 692.129 216.708 692.313 216.86C692.505 217.004 692.761 217.076 693.081 217.076ZM697.901 218V216.896H699.353V213.548C699.353 213.284 699.225 213.152 698.969 213.152H698.021V212.048H699.449C699.777 212.048 700.045 212.144 700.253 212.336C700.461 212.52 700.565 212.78 700.565 213.116V213.26H700.625C700.713 212.812 700.901 212.476 701.189 212.252C701.485 212.02 701.913 211.904 702.473 211.904H703.397V213.248H702.101C701.629 213.248 701.265 213.412 701.009 213.74C700.753 214.068 700.625 214.46 700.625 214.916V216.896H702.473V218H697.901ZM707.844 218.144C707.268 218.144 706.76 218.016 706.32 217.76C705.88 217.496 705.536 217.132 705.288 216.668C705.04 216.204 704.916 215.664 704.916 215.048C704.916 214.424 705.036 213.876 705.276 213.404C705.524 212.932 705.868 212.564 706.308 212.3C706.756 212.036 707.272 211.904 707.856 211.904C708.432 211.904 708.928 212.036 709.344 212.3C709.76 212.556 710.08 212.9 710.304 213.332C710.536 213.764 710.652 214.24 710.652 214.76C710.652 214.84 710.652 214.928 710.652 215.024C710.652 215.112 710.648 215.212 710.64 215.324H706.164C706.204 215.876 706.384 216.296 706.704 216.584C707.024 216.864 707.4 217.004 707.832 217.004C708.208 217.004 708.504 216.928 708.72 216.776C708.944 216.616 709.108 216.4 709.212 216.128H710.496C710.352 216.696 710.052 217.176 709.596 217.568C709.14 217.952 708.556 218.144 707.844 218.144ZM707.844 213.008C707.452 213.008 707.104 213.128 706.8 213.368C706.496 213.6 706.3 213.928 706.212 214.352H709.38C709.348 213.952 709.192 213.628 708.912 213.38C708.632 213.132 708.276 213.008 707.844 213.008ZM719.439 219.08L723.591 208.88H724.887L720.723 219.08H719.439ZM736.433 211.136C736.153 211.136 735.917 211.048 735.725 210.872C735.541 210.688 735.449 210.464 735.449 210.2C735.449 209.936 735.541 209.716 735.725 209.54C735.917 209.364 736.153 209.276 736.433 209.276C736.721 209.276 736.957 209.364 737.141 209.54C737.333 209.716 737.429 209.936 737.429 210.2C737.429 210.464 737.333 210.688 737.141 210.872C736.957 211.048 736.721 211.136 736.433 211.136ZM734.045 218V216.896H735.917V213.548C735.917 213.284 735.789 213.152 735.533 213.152H734.213V212.048H735.761C736.257 212.048 736.617 212.164 736.841 212.396C737.073 212.62 737.189 212.98 737.189 213.476V216.896H739.061V218H734.045ZM741.084 218V212.048H742.188L742.296 212.936H742.356C742.516 212.648 742.764 212.404 743.1 212.204C743.436 212.004 743.824 211.904 744.264 211.904C744.992 211.904 745.54 212.124 745.908 212.564C746.276 213.004 746.46 213.652 746.46 214.508V218H745.188V214.664C745.188 214.168 745.084 213.784 744.876 213.512C744.668 213.24 744.34 213.104 743.892 213.104C743.452 213.104 743.084 213.252 742.788 213.548C742.5 213.844 742.356 214.272 742.356 214.832V218H741.084ZM751.592 218C751.008 218 750.544 217.86 750.2 217.58C749.856 217.292 749.684 216.784 749.684 216.056V213.128H748.184V212.048H749.072C749.48 212.048 749.72 211.848 749.792 211.448L749.972 210.488H750.956V212.048H753.308V213.128H750.956V216.032C750.956 216.344 751.024 216.564 751.16 216.692C751.304 216.812 751.548 216.872 751.892 216.872H753.284V218H751.592ZM758.211 218.144C757.635 218.144 757.127 218.016 756.687 217.76C756.247 217.496 755.903 217.132 755.655 216.668C755.407 216.204 755.283 215.664 755.283 215.048C755.283 214.424 755.403 213.876 755.643 213.404C755.891 212.932 756.235 212.564 756.675 212.3C757.123 212.036 757.639 211.904 758.223 211.904C758.799 211.904 759.295 212.036 759.711 212.3C760.127 212.556 760.447 212.9 760.671 213.332C760.903 213.764 761.019 214.24 761.019 214.76C761.019 214.84 761.019 214.928 761.019 215.024C761.019 215.112 761.015 215.212 761.007 215.324H756.531C756.571 215.876 756.751 216.296 757.071 216.584C757.391 216.864 757.767 217.004 758.199 217.004C758.575 217.004 758.871 216.928 759.087 216.776C759.311 216.616 759.475 216.4 759.579 216.128H760.863C760.719 216.696 760.419 217.176 759.963 217.568C759.507 217.952 758.923 218.144 758.211 218.144ZM758.211 213.008C757.819 213.008 757.471 213.128 757.167 213.368C756.863 213.6 756.667 213.928 756.579 214.352H759.747C759.715 213.952 759.559 213.628 759.279 213.38C758.999 213.132 758.643 213.008 758.211 213.008ZM765.202 216.284C764.834 216.284 764.494 216.224 764.182 216.104L763.882 216.464C763.786 216.584 763.758 216.7 763.798 216.812C763.846 216.916 763.954 216.968 764.122 216.968H765.694C766.39 216.968 766.95 217.116 767.374 217.412C767.806 217.7 768.022 218.144 768.022 218.744C768.022 219.12 767.926 219.46 767.734 219.764C767.55 220.076 767.25 220.324 766.834 220.508C766.426 220.692 765.886 220.784 765.214 220.784C764.366 220.784 763.682 220.624 763.162 220.304C762.65 219.992 762.394 219.52 762.394 218.888C762.394 218.664 762.446 218.456 762.55 218.264C762.662 218.08 762.806 217.912 762.982 217.76C762.766 217.6 762.634 217.376 762.586 217.088C762.546 216.792 762.634 216.508 762.85 216.236L763.378 215.564C763.002 215.164 762.814 214.672 762.814 214.088C762.814 213.696 762.906 213.336 763.09 213.008C763.282 212.672 763.554 212.404 763.906 212.204C764.266 212.004 764.698 211.904 765.202 211.904C765.53 211.904 765.834 211.952 766.114 212.048H768.358V212.888L767.314 212.948V213.056C767.482 213.368 767.566 213.712 767.566 214.088C767.566 214.48 767.47 214.844 767.278 215.18C767.094 215.516 766.826 215.784 766.474 215.984C766.122 216.184 765.698 216.284 765.202 216.284ZM765.202 215.264C765.554 215.264 765.842 215.16 766.066 214.952C766.298 214.744 766.414 214.456 766.414 214.088C766.414 213.736 766.298 213.456 766.066 213.248C765.842 213.04 765.554 212.936 765.202 212.936C764.842 212.936 764.546 213.04 764.314 213.248C764.09 213.456 763.978 213.736 763.978 214.088C763.978 214.456 764.09 214.744 764.314 214.952C764.546 215.16 764.842 215.264 765.202 215.264ZM763.594 218.792C763.594 219.112 763.746 219.348 764.05 219.5C764.362 219.652 764.75 219.728 765.214 219.728C765.71 219.728 766.102 219.644 766.39 219.476C766.678 219.308 766.822 219.072 766.822 218.768C766.822 218.512 766.718 218.308 766.51 218.156C766.302 218.012 765.95 217.94 765.454 217.94H764.05C763.746 218.18 763.594 218.464 763.594 218.792ZM769.854 218V216.896H771.306V213.548C771.306 213.284 771.178 213.152 770.922 213.152H769.974V212.048H771.402C771.73 212.048 771.998 212.144 772.206 212.336C772.414 212.52 772.518 212.78 772.518 213.116V213.26H772.578C772.666 212.812 772.854 212.476 773.142 212.252C773.438 212.02 773.866 211.904 774.426 211.904H775.35V213.248H774.054C773.582 213.248 773.218 213.412 772.962 213.74C772.706 214.068 772.578 214.46 772.578 214.916V216.896H774.426V218H769.854ZM779.185 218.144C778.713 218.144 778.317 218.064 777.997 217.904C777.677 217.736 777.437 217.516 777.277 217.244C777.117 216.964 777.037 216.66 777.037 216.332C777.037 215.748 777.249 215.292 777.673 214.964C778.105 214.636 778.713 214.472 779.497 214.472H781.033V214.34C781.033 213.444 780.617 212.996 779.785 212.996C779.441 212.996 779.149 213.072 778.909 213.224C778.677 213.368 778.521 213.604 778.441 213.932H777.169C777.233 213.308 777.501 212.816 777.973 212.456C778.453 212.088 779.057 211.904 779.785 211.904C780.665 211.904 781.305 212.12 781.705 212.552C782.105 212.984 782.305 213.58 782.305 214.34V218H781.225L781.117 217.124H781.033C780.857 217.404 780.637 217.644 780.373 217.844C780.109 218.044 779.713 218.144 779.185 218.144ZM779.425 217.076C779.945 217.076 780.333 216.92 780.589 216.608C780.853 216.288 780.997 215.884 781.021 215.396H779.629C779.173 215.396 778.849 215.472 778.657 215.624C778.473 215.768 778.381 215.972 778.381 216.236C778.381 216.5 778.473 216.708 778.657 216.86C778.849 217.004 779.105 217.076 779.425 217.076ZM784.136 218V216.896H786.128V210.86C786.128 210.596 786 210.464 785.744 210.464H784.304V209.36H785.972C786.436 209.36 786.788 209.484 787.028 209.732C787.276 209.972 787.4 210.324 787.4 210.788V216.896H789.404V218H784.136Z" fill="#BB9041"/>
<rect x="1131" y="132" width="120" height="26" fill="#D64B4B"/>
<path d="M1138.54 145.34V144.26H1142.66V145.34H1138.54ZM1147.86 149.144C1147.3 149.144 1146.8 149.04 1146.36 148.832C1145.91 148.624 1145.55 148.32 1145.29 147.92C1145.02 147.512 1144.88 147.02 1144.86 146.444H1146.13C1146.15 146.884 1146.31 147.248 1146.61 147.536C1146.91 147.824 1147.33 147.968 1147.86 147.968C1148.38 147.968 1148.78 147.84 1149.08 147.584C1149.38 147.328 1149.52 146.976 1149.52 146.528C1149.52 146.032 1149.34 145.668 1148.98 145.436C1148.62 145.204 1148.18 145.088 1147.66 145.088H1146.92V143.96H1147.56C1148.03 143.96 1148.42 143.864 1148.72 143.672C1149.02 143.48 1149.18 143.18 1149.18 142.772C1149.18 142.42 1149.06 142.144 1148.83 141.944C1148.6 141.736 1148.27 141.632 1147.84 141.632C1147.41 141.632 1147.07 141.748 1146.81 141.98C1146.56 142.212 1146.41 142.508 1146.38 142.868H1145.12C1145.14 142.388 1145.27 141.968 1145.5 141.608C1145.74 141.248 1146.05 140.968 1146.45 140.768C1146.85 140.56 1147.32 140.456 1147.84 140.456C1148.42 140.456 1148.9 140.556 1149.28 140.756C1149.67 140.948 1149.96 141.208 1150.15 141.536C1150.34 141.864 1150.44 142.232 1150.44 142.64C1150.44 143.056 1150.31 143.416 1150.06 143.72C1149.82 144.016 1149.53 144.232 1149.19 144.368V144.44C1149.65 144.568 1150.03 144.808 1150.33 145.16C1150.63 145.504 1150.78 145.968 1150.78 146.552C1150.78 147.024 1150.67 147.46 1150.44 147.86C1150.21 148.252 1149.88 148.564 1149.44 148.796C1149.01 149.028 1148.48 149.144 1147.86 149.144ZM1155.91 149V147.188H1151.93V146.192L1155.69 140.6H1157.19V146.036H1158.28V147.188H1157.19V149H1155.91ZM1153.35 146.036H1155.99V142.028L1153.35 146.036ZM1160.58 144.176C1160.06 144.176 1159.63 144.008 1159.29 143.672C1158.96 143.336 1158.79 142.884 1158.79 142.316C1158.79 141.748 1158.96 141.296 1159.29 140.96C1159.63 140.624 1160.06 140.456 1160.58 140.456C1161.1 140.456 1161.53 140.624 1161.86 140.96C1162.2 141.296 1162.37 141.748 1162.37 142.316C1162.37 142.884 1162.2 143.336 1161.86 143.672C1161.53 144.008 1161.1 144.176 1160.58 144.176ZM1160.58 143.336C1160.81 143.336 1161.01 143.248 1161.19 143.072C1161.37 142.888 1161.45 142.636 1161.45 142.316C1161.45 141.988 1161.37 141.736 1161.19 141.56C1161.01 141.384 1160.81 141.296 1160.58 141.296C1160.35 141.296 1160.14 141.384 1159.97 141.56C1159.79 141.736 1159.7 141.988 1159.7 142.316C1159.7 142.636 1159.79 142.888 1159.97 143.072C1160.14 143.248 1160.35 143.336 1160.58 143.336ZM1159.44 148.292L1158.78 147.644L1164.93 141.308L1165.59 141.956L1159.44 148.292ZM1163.79 149.144C1163.27 149.144 1162.85 148.976 1162.51 148.64C1162.17 148.304 1162.01 147.852 1162.01 147.284C1162.01 146.716 1162.17 146.264 1162.51 145.928C1162.85 145.592 1163.27 145.424 1163.79 145.424C1164.31 145.424 1164.74 145.592 1165.08 145.928C1165.41 146.264 1165.58 146.716 1165.58 147.284C1165.58 147.852 1165.41 148.304 1165.08 148.64C1164.74 148.976 1164.31 149.144 1163.79 149.144ZM1163.79 148.304C1164.03 148.304 1164.23 148.216 1164.41 148.04C1164.58 147.856 1164.67 147.604 1164.67 147.284C1164.67 146.956 1164.58 146.704 1164.41 146.528C1164.23 146.352 1164.03 146.264 1163.79 146.264C1163.56 146.264 1163.36 146.352 1163.18 146.528C1163.01 146.704 1162.92 146.956 1162.92 147.284C1162.92 147.604 1163.01 147.856 1163.18 148.04C1163.36 148.216 1163.56 148.304 1163.79 148.304ZM1177.22 149C1176.64 149 1176.18 148.86 1175.83 148.58C1175.49 148.292 1175.32 147.784 1175.32 147.056V144.128H1173.82V143.048H1174.7C1175.11 143.048 1175.35 142.848 1175.42 142.448L1175.6 141.488H1176.59V143.048H1178.94V144.128H1176.59V147.032C1176.59 147.344 1176.66 147.564 1176.79 147.692C1176.94 147.812 1177.18 147.872 1177.52 147.872H1178.92V149H1177.22ZM1181.05 149V140.36H1182.32V143.936C1182.48 143.64 1182.74 143.396 1183.09 143.204C1183.44 143.004 1183.84 142.904 1184.28 142.904C1185.01 142.904 1185.57 143.128 1185.96 143.576C1186.34 144.016 1186.53 144.652 1186.53 145.484V149H1185.26V145.664C1185.26 145.168 1185.14 144.784 1184.9 144.512C1184.66 144.24 1184.33 144.104 1183.9 144.104C1183.46 144.104 1183.09 144.252 1182.78 144.548C1182.47 144.844 1182.32 145.272 1182.32 145.832V149H1181.05ZM1188.29 149V147.896H1189.74V144.548C1189.74 144.284 1189.62 144.152 1189.36 144.152H1188.41V143.048H1189.84C1190.17 143.048 1190.44 143.144 1190.64 143.336C1190.85 143.52 1190.96 143.78 1190.96 144.116V144.26H1191.02C1191.1 143.812 1191.29 143.476 1191.58 143.252C1191.88 143.02 1192.3 142.904 1192.86 142.904H1193.79V144.248H1192.49C1192.02 144.248 1191.66 144.412 1191.4 144.74C1191.14 145.068 1191.02 145.46 1191.02 145.916V147.896H1192.86V149H1188.29ZM1198.16 149.144C1197.59 149.144 1197.09 149.016 1196.64 148.76C1196.19 148.504 1195.84 148.144 1195.58 147.68C1195.33 147.208 1195.2 146.656 1195.2 146.024C1195.2 145.392 1195.33 144.844 1195.58 144.38C1195.84 143.908 1196.19 143.544 1196.64 143.288C1197.09 143.032 1197.6 142.904 1198.17 142.904C1198.75 142.904 1199.26 143.032 1199.7 143.288C1200.15 143.544 1200.49 143.908 1200.74 144.38C1201 144.844 1201.13 145.392 1201.13 146.024C1201.13 146.656 1201 147.208 1200.74 147.68C1200.49 148.144 1200.13 148.504 1199.69 148.76C1199.25 149.016 1198.74 149.144 1198.16 149.144ZM1198.16 147.932C1198.47 147.932 1198.75 147.864 1199 147.728C1199.26 147.592 1199.46 147.384 1199.61 147.104C1199.77 146.816 1199.85 146.456 1199.85 146.024C1199.85 145.584 1199.77 145.224 1199.61 144.944C1199.46 144.664 1199.26 144.456 1199 144.32C1198.75 144.184 1198.48 144.116 1198.17 144.116C1197.87 144.116 1197.59 144.184 1197.33 144.32C1197.08 144.456 1196.87 144.664 1196.71 144.944C1196.56 145.224 1196.48 145.584 1196.48 146.024C1196.48 146.68 1196.65 147.164 1196.97 147.476C1197.31 147.78 1197.71 147.932 1198.16 147.932ZM1204.83 149.144C1204.11 149.144 1203.56 148.924 1203.19 148.484C1202.82 148.036 1202.63 147.388 1202.63 146.54V143.048H1203.91V146.384C1203.91 146.872 1204.01 147.256 1204.22 147.536C1204.43 147.808 1204.76 147.944 1205.2 147.944C1205.64 147.944 1206.01 147.796 1206.31 147.5C1206.6 147.204 1206.75 146.776 1206.75 146.216V143.048H1208.02V149H1206.92L1206.81 148.112H1206.75C1206.59 148.4 1206.34 148.644 1206.01 148.844C1205.67 149.044 1205.28 149.144 1204.83 149.144ZM1212.42 147.284C1212.05 147.284 1211.71 147.224 1211.4 147.104L1211.1 147.464C1211.01 147.584 1210.98 147.7 1211.02 147.812C1211.07 147.916 1211.17 147.968 1211.34 147.968H1212.91C1213.61 147.968 1214.17 148.116 1214.59 148.412C1215.03 148.7 1215.24 149.144 1215.24 149.744C1215.24 150.12 1215.15 150.46 1214.95 150.764C1214.77 151.076 1214.47 151.324 1214.05 151.508C1213.65 151.692 1213.11 151.784 1212.43 151.784C1211.59 151.784 1210.9 151.624 1210.38 151.304C1209.87 150.992 1209.61 150.52 1209.61 149.888C1209.61 149.664 1209.67 149.456 1209.77 149.264C1209.88 149.08 1210.03 148.912 1210.2 148.76C1209.99 148.6 1209.85 148.376 1209.81 148.088C1209.77 147.792 1209.85 147.508 1210.07 147.236L1210.6 146.564C1210.22 146.164 1210.03 145.672 1210.03 145.088C1210.03 144.696 1210.13 144.336 1210.31 144.008C1210.5 143.672 1210.77 143.404 1211.13 143.204C1211.49 143.004 1211.92 142.904 1212.42 142.904C1212.75 142.904 1213.05 142.952 1213.33 143.048H1215.58V143.888L1214.53 143.948V144.056C1214.7 144.368 1214.79 144.712 1214.79 145.088C1214.79 145.48 1214.69 145.844 1214.5 146.18C1214.31 146.516 1214.05 146.784 1213.69 146.984C1213.34 147.184 1212.92 147.284 1212.42 147.284ZM1212.42 146.264C1212.77 146.264 1213.06 146.16 1213.29 145.952C1213.52 145.744 1213.63 145.456 1213.63 145.088C1213.63 144.736 1213.52 144.456 1213.29 144.248C1213.06 144.04 1212.77 143.936 1212.42 143.936C1212.06 143.936 1211.77 144.04 1211.53 144.248C1211.31 144.456 1211.2 144.736 1211.2 145.088C1211.2 145.456 1211.31 145.744 1211.53 145.952C1211.77 146.16 1212.06 146.264 1212.42 146.264ZM1210.81 149.792C1210.81 150.112 1210.97 150.348 1211.27 150.5C1211.58 150.652 1211.97 150.728 1212.43 150.728C1212.93 150.728 1213.32 150.644 1213.61 150.476C1213.9 150.308 1214.04 150.072 1214.04 149.768C1214.04 149.512 1213.94 149.308 1213.73 149.156C1213.52 149.012 1213.17 148.94 1212.67 148.94H1211.27C1210.97 149.18 1210.81 149.464 1210.81 149.792ZM1217.02 149V140.36H1218.3V143.936C1218.46 143.64 1218.71 143.396 1219.06 143.204C1219.42 143.004 1219.81 142.904 1220.25 142.904C1220.99 142.904 1221.55 143.128 1221.93 143.576C1222.32 144.016 1222.51 144.652 1222.51 145.484V149H1221.24V145.664C1221.24 145.168 1221.12 144.784 1220.88 144.512C1220.64 144.24 1220.3 144.104 1219.88 144.104C1219.44 144.104 1219.06 144.252 1218.75 144.548C1218.45 144.844 1218.3 145.272 1218.3 145.832V149H1217.02ZM1224.17 151.64V143.048H1225.28L1225.37 143.96H1225.44C1225.6 143.664 1225.84 143.416 1226.16 143.216C1226.49 143.008 1226.88 142.904 1227.33 142.904C1227.79 142.904 1228.22 143.024 1228.6 143.264C1228.98 143.496 1229.29 143.844 1229.51 144.308C1229.74 144.764 1229.86 145.336 1229.86 146.024C1229.86 146.704 1229.74 147.276 1229.5 147.74C1229.27 148.204 1228.95 148.556 1228.55 148.796C1228.15 149.028 1227.7 149.144 1227.21 149.144C1226.77 149.144 1226.4 149.056 1226.1 148.88C1225.81 148.704 1225.59 148.504 1225.44 148.28V151.64H1224.17ZM1226.99 147.932C1227.44 147.932 1227.81 147.772 1228.11 147.452C1228.41 147.132 1228.56 146.652 1228.56 146.012C1228.56 145.372 1228.41 144.896 1228.11 144.584C1227.81 144.272 1227.44 144.116 1226.99 144.116C1226.54 144.116 1226.16 144.276 1225.85 144.596C1225.56 144.908 1225.41 145.384 1225.41 146.024C1225.41 146.656 1225.56 147.132 1225.85 147.452C1226.16 147.772 1226.54 147.932 1226.99 147.932ZM1233.61 149.144C1232.89 149.144 1232.34 148.924 1231.97 148.484C1231.6 148.036 1231.42 147.388 1231.42 146.54V143.048H1232.69V146.384C1232.69 146.872 1232.79 147.256 1233 147.536C1233.22 147.808 1233.54 147.944 1233.98 147.944C1234.42 147.944 1234.79 147.796 1235.09 147.5C1235.38 147.204 1235.53 146.776 1235.53 146.216V143.048H1236.8V149H1235.7L1235.59 148.112H1235.53C1235.37 148.4 1235.12 148.644 1234.79 148.844C1234.45 149.044 1234.06 149.144 1233.61 149.144ZM1241.98 149C1241.4 149 1240.93 148.86 1240.59 148.58C1240.25 148.292 1240.07 147.784 1240.07 147.056V144.128H1238.57V143.048H1239.46C1239.87 143.048 1240.11 142.848 1240.18 142.448L1240.36 141.488H1241.35V143.048H1243.7V144.128H1241.35V147.032C1241.35 147.344 1241.41 147.564 1241.55 147.692C1241.69 147.812 1241.94 147.872 1242.28 147.872H1243.67V149H1241.98Z" fill="white"/>
<rect x="1146" y="160" width="152" height="26" fill="#D64B4B"/>
<path d="M1155.54 173.34V172.26H1159.66V173.34H1155.54ZM1164.78 177.144C1164.2 177.144 1163.69 177.036 1163.26 176.82C1162.83 176.604 1162.49 176.308 1162.24 175.932C1162 175.556 1161.86 175.132 1161.82 174.66H1163.12C1163.2 175.052 1163.38 175.368 1163.67 175.608C1163.96 175.848 1164.34 175.968 1164.8 175.968C1165.33 175.968 1165.76 175.8 1166.07 175.464C1166.38 175.12 1166.54 174.68 1166.54 174.144C1166.54 173.576 1166.38 173.136 1166.06 172.824C1165.74 172.512 1165.33 172.356 1164.83 172.356C1164.43 172.356 1164.09 172.448 1163.81 172.632C1163.53 172.816 1163.31 173.048 1163.15 173.328H1161.93L1162.65 168.6H1167.22V169.776H1163.63L1163.22 171.924H1163.31C1163.48 171.732 1163.7 171.572 1163.98 171.444C1164.27 171.316 1164.61 171.252 1165 171.252C1165.58 171.252 1166.07 171.376 1166.48 171.624C1166.89 171.872 1167.21 172.216 1167.44 172.656C1167.66 173.088 1167.77 173.58 1167.77 174.132C1167.77 174.692 1167.65 175.2 1167.4 175.656C1167.16 176.112 1166.82 176.476 1166.37 176.748C1165.92 177.012 1165.39 177.144 1164.78 177.144ZM1170.31 177L1173.49 169.752H1169.1V168.6H1174.8V169.584L1171.64 177H1170.31ZM1177.58 172.176C1177.06 172.176 1176.63 172.008 1176.29 171.672C1175.96 171.336 1175.79 170.884 1175.79 170.316C1175.79 169.748 1175.96 169.296 1176.29 168.96C1176.63 168.624 1177.06 168.456 1177.58 168.456C1178.1 168.456 1178.53 168.624 1178.86 168.96C1179.2 169.296 1179.37 169.748 1179.37 170.316C1179.37 170.884 1179.2 171.336 1178.86 171.672C1178.53 172.008 1178.1 172.176 1177.58 172.176ZM1177.58 171.336C1177.81 171.336 1178.01 171.248 1178.19 171.072C1178.37 170.888 1178.45 170.636 1178.45 170.316C1178.45 169.988 1178.37 169.736 1178.19 169.56C1178.01 169.384 1177.81 169.296 1177.58 169.296C1177.35 169.296 1177.14 169.384 1176.97 169.56C1176.79 169.736 1176.7 169.988 1176.7 170.316C1176.7 170.636 1176.79 170.888 1176.97 171.072C1177.14 171.248 1177.35 171.336 1177.58 171.336ZM1176.44 176.292L1175.78 175.644L1181.93 169.308L1182.59 169.956L1176.44 176.292ZM1180.79 177.144C1180.27 177.144 1179.85 176.976 1179.51 176.64C1179.17 176.304 1179.01 175.852 1179.01 175.284C1179.01 174.716 1179.17 174.264 1179.51 173.928C1179.85 173.592 1180.27 173.424 1180.79 173.424C1181.31 173.424 1181.74 173.592 1182.08 173.928C1182.41 174.264 1182.58 174.716 1182.58 175.284C1182.58 175.852 1182.41 176.304 1182.08 176.64C1181.74 176.976 1181.31 177.144 1180.79 177.144ZM1180.79 176.304C1181.03 176.304 1181.23 176.216 1181.41 176.04C1181.58 175.856 1181.67 175.604 1181.67 175.284C1181.67 174.956 1181.58 174.704 1181.41 174.528C1181.23 174.352 1181.03 174.264 1180.79 174.264C1180.56 174.264 1180.36 174.352 1180.18 174.528C1180.01 174.704 1179.92 174.956 1179.92 175.284C1179.92 175.604 1180.01 175.856 1180.18 176.04C1180.36 176.216 1180.56 176.304 1180.79 176.304ZM1194.22 177C1193.64 177 1193.18 176.86 1192.83 176.58C1192.49 176.292 1192.32 175.784 1192.32 175.056V172.128H1190.82V171.048H1191.7C1192.11 171.048 1192.35 170.848 1192.42 170.448L1192.6 169.488H1193.59V171.048H1195.94V172.128H1193.59V175.032C1193.59 175.344 1193.66 175.564 1193.79 175.692C1193.94 175.812 1194.18 175.872 1194.52 175.872H1195.92V177H1194.22ZM1200.23 177.144C1199.76 177.144 1199.36 177.064 1199.04 176.904C1198.72 176.736 1198.48 176.516 1198.32 176.244C1198.16 175.964 1198.08 175.66 1198.08 175.332C1198.08 174.748 1198.3 174.292 1198.72 173.964C1199.15 173.636 1199.76 173.472 1200.54 173.472H1202.08V173.34C1202.08 172.444 1201.66 171.996 1200.83 171.996C1200.49 171.996 1200.2 172.072 1199.96 172.224C1199.72 172.368 1199.57 172.604 1199.49 172.932H1198.22C1198.28 172.308 1198.55 171.816 1199.02 171.456C1199.5 171.088 1200.1 170.904 1200.83 170.904C1201.71 170.904 1202.35 171.12 1202.75 171.552C1203.15 171.984 1203.35 172.58 1203.35 173.34V177H1202.27L1202.16 176.124H1202.08C1201.9 176.404 1201.68 176.644 1201.42 176.844C1201.16 177.044 1200.76 177.144 1200.23 177.144ZM1200.47 176.076C1200.99 176.076 1201.38 175.92 1201.64 175.608C1201.9 175.288 1202.04 174.884 1202.07 174.396H1200.68C1200.22 174.396 1199.9 174.472 1199.7 174.624C1199.52 174.768 1199.43 174.972 1199.43 175.236C1199.43 175.5 1199.52 175.708 1199.7 175.86C1199.9 176.004 1200.15 176.076 1200.47 176.076ZM1208.02 177.144C1207.23 177.144 1206.61 176.96 1206.14 176.592C1205.68 176.224 1205.42 175.736 1205.35 175.128H1206.66C1206.71 175.408 1206.85 175.636 1207.08 175.812C1207.32 175.988 1207.64 176.076 1208.03 176.076C1208.4 176.076 1208.69 176 1208.89 175.848C1209.1 175.688 1209.2 175.504 1209.2 175.296C1209.2 174.992 1209.08 174.784 1208.83 174.672C1208.59 174.56 1208.24 174.476 1207.76 174.42C1207.36 174.372 1206.98 174.28 1206.65 174.144C1206.32 174 1206.06 173.808 1205.87 173.568C1205.68 173.32 1205.58 173.012 1205.58 172.644C1205.58 172.124 1205.78 171.704 1206.19 171.384C1206.6 171.064 1207.17 170.904 1207.9 170.904C1208.62 170.904 1209.19 171.068 1209.59 171.396C1209.99 171.724 1210.22 172.172 1210.28 172.74H1209.06C1209.03 172.5 1208.9 172.312 1208.69 172.176C1208.47 172.032 1208.2 171.96 1207.88 171.96C1207.56 171.96 1207.3 172.024 1207.1 172.152C1206.91 172.272 1206.82 172.432 1206.82 172.632C1206.82 173.064 1207.28 173.328 1208.21 173.424C1208.65 173.472 1209.04 173.556 1209.38 173.676C1209.73 173.788 1210 173.968 1210.2 174.216C1210.4 174.456 1210.5 174.796 1210.5 175.236C1210.51 175.596 1210.4 175.92 1210.19 176.208C1209.98 176.496 1209.69 176.724 1209.31 176.892C1208.94 177.06 1208.51 177.144 1208.02 177.144ZM1212.74 177V168.36H1214.01V173.544L1216.29 171.048H1217.89L1215.4 173.688V173.784L1218.21 177H1216.66L1214.01 173.94V177H1212.74ZM1229.64 177.144C1229.09 177.144 1228.59 177.016 1228.15 176.76C1227.72 176.504 1227.38 176.144 1227.13 175.68C1226.88 175.208 1226.76 174.656 1226.76 174.024C1226.76 173.392 1226.88 172.844 1227.13 172.38C1227.39 171.916 1227.73 171.556 1228.16 171.3C1228.59 171.036 1229.09 170.904 1229.64 170.904C1230.4 170.904 1231.01 171.096 1231.47 171.48C1231.95 171.856 1232.25 172.376 1232.37 173.04H1231.04C1230.96 172.752 1230.8 172.524 1230.55 172.356C1230.31 172.188 1230 172.104 1229.63 172.104C1229.35 172.104 1229.09 172.176 1228.85 172.32C1228.61 172.464 1228.41 172.68 1228.26 172.968C1228.11 173.248 1228.04 173.6 1228.04 174.024C1228.04 174.44 1228.11 174.792 1228.26 175.08C1228.41 175.368 1228.61 175.588 1228.85 175.74C1229.09 175.884 1229.35 175.956 1229.63 175.956C1230.01 175.956 1230.32 175.872 1230.55 175.704C1230.78 175.536 1230.95 175.304 1231.04 175.008H1232.37C1232.21 175.664 1231.9 176.184 1231.44 176.568C1230.97 176.952 1230.37 177.144 1229.64 177.144ZM1236.75 177.144C1236.18 177.144 1235.67 177.016 1235.22 176.76C1234.78 176.504 1234.42 176.144 1234.17 175.68C1233.91 175.208 1233.78 174.656 1233.78 174.024C1233.78 173.392 1233.91 172.844 1234.17 172.38C1234.42 171.908 1234.78 171.544 1235.22 171.288C1235.67 171.032 1236.18 170.904 1236.76 170.904C1237.34 170.904 1237.84 171.032 1238.28 171.288C1238.73 171.544 1239.08 171.908 1239.33 172.38C1239.58 172.844 1239.71 173.392 1239.71 174.024C1239.71 174.656 1239.58 175.208 1239.33 175.68C1239.07 176.144 1238.72 176.504 1238.27 176.76C1237.83 177.016 1237.32 177.144 1236.75 177.144ZM1236.75 175.932C1237.05 175.932 1237.33 175.864 1237.59 175.728C1237.84 175.592 1238.05 175.384 1238.2 175.104C1238.36 174.816 1238.44 174.456 1238.44 174.024C1238.44 173.584 1238.36 173.224 1238.2 172.944C1238.05 172.664 1237.84 172.456 1237.59 172.32C1237.34 172.184 1237.06 172.116 1236.76 172.116C1236.46 172.116 1236.18 172.184 1235.92 172.32C1235.66 172.456 1235.46 172.664 1235.3 172.944C1235.14 173.224 1235.07 173.584 1235.07 174.024C1235.07 174.68 1235.23 175.164 1235.56 175.476C1235.9 175.78 1236.29 175.932 1236.75 175.932ZM1240.64 177V171.048H1241.7L1241.81 171.744H1241.87C1241.97 171.496 1242.13 171.296 1242.35 171.144C1242.56 170.984 1242.82 170.904 1243.12 170.904C1243.4 170.904 1243.66 170.976 1243.87 171.12C1244.09 171.264 1244.25 171.472 1244.35 171.744H1244.4C1244.5 171.504 1244.67 171.304 1244.89 171.144C1245.12 170.984 1245.39 170.904 1245.72 170.904C1246.16 170.904 1246.49 171.048 1246.72 171.336C1246.95 171.624 1247.06 172.028 1247.06 172.548V177H1245.84V172.8C1245.84 172.56 1245.79 172.372 1245.68 172.236C1245.59 172.092 1245.43 172.02 1245.22 172.02C1245 172.02 1244.82 172.104 1244.68 172.272C1244.54 172.44 1244.47 172.676 1244.47 172.98V177H1243.24V172.8C1243.24 172.56 1243.19 172.372 1243.09 172.236C1243 172.092 1242.84 172.02 1242.62 172.02C1242.41 172.02 1242.23 172.104 1242.08 172.272C1241.94 172.44 1241.87 172.676 1241.87 172.98V177H1240.64ZM1248.37 179.64V171.048H1249.47L1249.57 171.96H1249.64C1249.8 171.664 1250.04 171.416 1250.36 171.216C1250.69 171.008 1251.08 170.904 1251.52 170.904C1251.99 170.904 1252.41 171.024 1252.8 171.264C1253.18 171.496 1253.48 171.844 1253.71 172.308C1253.94 172.764 1254.06 173.336 1254.06 174.024C1254.06 174.704 1253.94 175.276 1253.7 175.74C1253.46 176.204 1253.15 176.556 1252.75 176.796C1252.35 177.028 1251.9 177.144 1251.4 177.144C1250.96 177.144 1250.6 177.056 1250.3 176.88C1250 176.704 1249.78 176.504 1249.64 176.28V179.64H1248.37ZM1251.19 175.932C1251.64 175.932 1252.01 175.772 1252.3 175.452C1252.61 175.132 1252.76 174.652 1252.76 174.012C1252.76 173.372 1252.61 172.896 1252.3 172.584C1252.01 172.272 1251.64 172.116 1251.19 172.116C1250.73 172.116 1250.35 172.276 1250.05 172.596C1249.75 172.908 1249.6 173.384 1249.6 174.024C1249.6 174.656 1249.75 175.132 1250.05 175.452C1250.35 175.772 1250.73 175.932 1251.19 175.932ZM1255.55 177V175.896H1257.54V169.86C1257.54 169.596 1257.41 169.464 1257.16 169.464H1255.72V168.36H1257.39C1257.85 168.36 1258.2 168.484 1258.44 168.732C1258.69 168.972 1258.81 169.324 1258.81 169.788V175.896H1260.82V177H1255.55ZM1265.6 177.144C1265.03 177.144 1264.52 177.016 1264.08 176.76C1263.64 176.496 1263.29 176.132 1263.05 175.668C1262.8 175.204 1262.67 174.664 1262.67 174.048C1262.67 173.424 1262.79 172.876 1263.03 172.404C1263.28 171.932 1263.63 171.564 1264.07 171.3C1264.51 171.036 1265.03 170.904 1265.61 170.904C1266.19 170.904 1266.69 171.036 1267.1 171.3C1267.52 171.556 1267.84 171.9 1268.06 172.332C1268.29 172.764 1268.41 173.24 1268.41 173.76C1268.41 173.84 1268.41 173.928 1268.41 174.024C1268.41 174.112 1268.41 174.212 1268.4 174.324H1263.92C1263.96 174.876 1264.14 175.296 1264.46 175.584C1264.78 175.864 1265.16 176.004 1265.59 176.004C1265.97 176.004 1266.26 175.928 1266.48 175.776C1266.7 175.616 1266.87 175.4 1266.97 175.128H1268.25C1268.11 175.696 1267.81 176.176 1267.35 176.568C1266.9 176.952 1266.31 177.144 1265.6 177.144ZM1265.6 172.008C1265.21 172.008 1264.86 172.128 1264.56 172.368C1264.25 172.6 1264.06 172.928 1263.97 173.352H1267.14C1267.11 172.952 1266.95 172.628 1266.67 172.38C1266.39 172.132 1266.03 172.008 1265.6 172.008ZM1273.37 177C1272.79 177 1272.33 176.86 1271.98 176.58C1271.64 176.292 1271.47 175.784 1271.47 175.056V172.128H1269.97V171.048H1270.85C1271.26 171.048 1271.5 170.848 1271.57 170.448L1271.75 169.488H1272.74V171.048H1275.09V172.128H1272.74V175.032C1272.74 175.344 1272.81 175.564 1272.94 175.692C1273.09 175.812 1273.33 175.872 1273.67 175.872H1275.07V177H1273.37ZM1279.99 177.144C1279.42 177.144 1278.91 177.016 1278.47 176.76C1278.03 176.496 1277.68 176.132 1277.44 175.668C1277.19 175.204 1277.06 174.664 1277.06 174.048C1277.06 173.424 1277.18 172.876 1277.42 172.404C1277.67 171.932 1278.02 171.564 1278.46 171.3C1278.9 171.036 1279.42 170.904 1280 170.904C1280.58 170.904 1281.08 171.036 1281.49 171.3C1281.91 171.556 1282.23 171.9 1282.45 172.332C1282.68 172.764 1282.8 173.24 1282.8 173.76C1282.8 173.84 1282.8 173.928 1282.8 174.024C1282.8 174.112 1282.8 174.212 1282.79 174.324H1278.31C1278.35 174.876 1278.53 175.296 1278.85 175.584C1279.17 175.864 1279.55 176.004 1279.98 176.004C1280.36 176.004 1280.65 175.928 1280.87 175.776C1281.09 175.616 1281.26 175.4 1281.36 175.128H1282.64C1282.5 175.696 1282.2 176.176 1281.74 176.568C1281.29 176.952 1280.7 177.144 1279.99 177.144ZM1279.99 172.008C1279.6 172.008 1279.25 172.128 1278.95 172.368C1278.64 172.6 1278.45 172.928 1278.36 173.352H1281.53C1281.5 172.952 1281.34 172.628 1281.06 172.38C1280.78 172.132 1280.42 172.008 1279.99 172.008ZM1286.79 177.144C1286.3 177.144 1285.85 177.028 1285.46 176.796C1285.07 176.556 1284.76 176.204 1284.52 175.74C1284.3 175.276 1284.19 174.704 1284.19 174.024C1284.19 173.344 1284.3 172.772 1284.54 172.308C1284.77 171.844 1285.08 171.496 1285.47 171.264C1285.87 171.024 1286.32 170.904 1286.8 170.904C1287.26 170.904 1287.64 170.992 1287.93 171.168C1288.23 171.336 1288.45 171.552 1288.59 171.816V168.36H1289.86V177H1288.77L1288.66 176.124H1288.59C1288.43 176.436 1288.2 176.684 1287.91 176.868C1287.62 177.052 1287.25 177.144 1286.79 177.144ZM1287.06 175.932C1287.51 175.932 1287.89 175.772 1288.18 175.452C1288.49 175.132 1288.64 174.656 1288.64 174.024C1288.64 173.384 1288.49 172.908 1288.18 172.596C1287.89 172.276 1287.51 172.116 1287.06 172.116C1286.6 172.116 1286.22 172.276 1285.92 172.596C1285.62 172.916 1285.47 173.396 1285.47 174.036C1285.47 174.668 1285.62 175.144 1285.92 175.464C1286.22 175.776 1286.6 175.932 1287.06 175.932Z" fill="white"/>
<defs>
<filter id="filter0_d_16_123" x="0" y="0" width="325" height="146" filterUnits="userSpaceOnUse" color-interpolation-filters="sRGB">
<feFlood flood-opacity="0" result="BackgroundImageFix"/>
<feColorMatrix in="SourceAlpha" type="matrix" values="0 0 0 0 0 0 0 0 0 0 0 0 0 0 0 0 0 0 127 0" result="hardAlpha"/>
<feOffset dy="4"/>
<feGaussianBlur stdDeviation="2"/>
<feComposite in2="hardAlpha" operator="out"/>
<feColorMatrix type="matrix" values="0 0 0 0 0 0 0 0 0 0 0 0 0 0 0 0 0 0 0.25 0"/>
<feBlend mode="normal" in2="BackgroundImageFix" result="effect1_dropShadow_16_123"/>
<feBlend mode="normal" in="SourceGraphic" in2="effect1_dropShadow_16_123" result="shape"/>
</filter>
<filter id="filter1_d_16_123" x="360" y="2" width="278" height="138" filterUnits="userSpaceOnUse" color-interpolation-filters="sRGB">
<feFlood flood-opacity="0" result="BackgroundImageFix"/>
<feColorMatrix in="SourceAlpha" type="matrix" values="0 0 0 0 0 0 0 0 0 0 0 0 0 0 0 0 0 0 127 0" result="hardAlpha"/>
<feOffset dy="2"/>
<feGaussianBlur stdDeviation="2"/>
<feComposite in2="hardAlpha" operator="out"/>
<feColorMatrix type="matrix" values="0 0 0 0 0 0 0 0 0 0 0 0 0 0 0 0 0 0 0.25 0"/>
<feBlend mode="normal" in2="BackgroundImageFix" result="effect1_dropShadow_16_123"/>
<feBlend mode="normal" in="SourceGraphic" in2="effect1_dropShadow_16_123" result="shape"/>
</filter>
<filter id="filter2_d_16_123" x="1" y="289" width="325" height="146" filterUnits="userSpaceOnUse" color-interpolation-filters="sRGB">
<feFlood flood-opacity="0" result="BackgroundImageFix"/>
<feColorMatrix in="SourceAlpha" type="matrix" values="0 0 0 0 0 0 0 0 0 0 0 0 0 0 0 0 0 0 127 0" result="hardAlpha"/>
<feOffset dy="4"/>
<feGaussianBlur stdDeviation="2"/>
<feComposite in2="hardAlpha" operator="out"/>
<feColorMatrix type="matrix" values="0 0 0 0 0 0 0 0 0 0 0 0 0 0 0 0 0 0 0.25 0"/>
<feBlend mode="normal" in2="BackgroundImageFix" result="effect1_dropShadow_16_123"/>
<feBlend mode="normal" in="SourceGraphic" in2="effect1_dropShadow_16_123" result="shape"/>
</filter>
<filter id="filter3_d_16_123" x="360" y="291" width="278" height="138" filterUnits="userSpaceOnUse" color-interpolation-filters="sRGB">
<feFlood flood-opacity="0" result="BackgroundImageFix"/>
<feColorMatrix in="SourceAlpha" type="matrix" values="0 0 0 0 0 0 0 0 0 0 0 0 0 0 0 0 0 0 127 0" result="hardAlpha"/>
<feOffset dy="2"/>
<feGaussianBlur stdDeviation="2"/>
<feComposite in2="hardAlpha" operator="out"/>
<feColorMatrix type="matrix" values="0 0 0 0 0 0 0 0 0 0 0 0 0 0 0 0 0 0 0.25 0"/>
<feBlend mode="normal" in2="BackgroundImageFix" result="effect1_dropShadow_16_123"/>
<feBlend mode="normal" in="SourceGraphic" in2="effect1_dropShadow_16_123" result="shape"/>
</filter>
<filter id="filter4_d_16_123" x="879" y="151" width="278" height="138" filterUnits="userSpaceOnUse" color-interpolation-filters="sRGB">
<feFlood flood-opacity="0" result="BackgroundImageFix"/>
<feColorMatrix in="SourceAlpha" type="matrix" values="0 0 0 0 0 0 0 0 0 0 0 0 0 0 0 0 0 0 127 0" result="hardAlpha"/>
<feOffset dy="2"/>
<feGaussianBlur stdDeviation="2"/>
<feComposite in2="hardAlpha" operator="out"/>
<feColorMatrix type="matrix" values="0 0 0 0 0 0 0 0 0 0 0 0 0 0 0 0 0 0 0.25 0"/>
<feBlend mode="normal" in2="BackgroundImageFix" result="effect1_dropShadow_16_123"/>
<feBlend mode="normal" in="SourceGraphic" in2="effect1_dropShadow_16_123" result="shape"/>
</filter>
</defs>
</svg>
